<?xml version="1.0" encoding="utf-8"?>
<!-- Generator: Adobe Illustrator 21.0.0, SVG Export Plug-In . SVG Version: 6.00 Build 0)  -->
<svg version="1.1" id="Capa_1" xmlns="http://www.w3.org/2000/svg" xmlns:xlink="http://www.w3.org/1999/xlink" x="0px" y="0px"
	 viewBox="0 0 512 512" style="enable-background:new 0 0 512 512;" xml:space="preserve">
<style type="text/css">
	.st0{fill:#008A34;}
</style>
<g>
	<path d="M476.2,137.5l1.8,0.6c19.5,5.9,25.3,30.8,10.2,44.6l-1.4,1.3c-12.6,11.5-16.9,30-10.5,45.9l0.7,1.8
		c5.3,13.2-0.8,27.1-12.2,33.1c1.9,2.1,4,3.6,6.2,5.4c0.9,0.7,1.6,1.6,2.4,2.5c0.9,1,2.1,1.7,3.2,2.4c14.8-10.6,21.8-30.4,14.3-49
		l-0.7-1.8c-4.1-10.1-1.4-21.8,6.7-29.2l1.4-1.3c23.7-21.6,14.8-60.8-16-70c-0.6-0.3-12.2-2.2-18-14.4c-1.8-3.7-6.3-5.3-10-3.5
		c-3.7,1.8-5.3,6.3-3.5,10C455.8,126.2,465,134.2,476.2,137.5z"/>
	<path d="M300.6,472.6c-0.1,0-0.1-0.1-0.1-0.1c-6.5,3.7-14.5,4.1-21.5,0.7c-33.2-16.3-64.4-34.1-92.7-52.8
		c21.7-15.3,42.4-31.8,61.6-49.7c0.1-2,0.7-3.9,0.9-6c0.2-2.1,0-4.1,0-6.2c-0.1-3.2-0.5-6.6,0.2-9.7
		c-40.9,40.9-91.6,75.5-141.5,103.2c-3.6,2-4.9,6.6-2.9,10.2c2,3.6,6.6,4.9,10.2,2.9c20.6-11.4,40-23.3,58.2-35.5
		c30.2,20.3,63.6,39.5,99.4,57.1c13.6,6.7,30,4.6,41.4-5.2C309.4,478.4,305,475.4,300.6,472.6z"/>
	<path class="st0" d="M475.4,275.8L475.4,275.8c0.1-0.1,0.2-0.2,0.3-0.2c-0.9-0.5-1.7-1.1-2.5-1.8c-1-0.9-1.8-2.1-2.9-2.9
		c-2.2-1.8-4.5-3.4-6.4-5.6c0,0,0,0,0-0.1l0,0c-36.3-29.9-84.7-37.4-127.1-22.4c-0.9,2.4-5,3-7.1,3.5c-2.1,0.5-3.8,1-5.6,2
		c-2.3,1.3-4.6,2.7-7.1,3.7c-0.2,0.1-0.3,0-0.4,0c-34.9,19.5-60.1,54.4-66.2,95.5c-0.1,0.1-0.1,0.1-0.2,0.2c0.1,0.1,0.1,0.2,0,0.4
		c-1.1,3.6-0.5,7.7-0.5,11.4c0,1.9,0.1,3.8,0,5.8c-0.2,1.6-0.6,3.2-0.8,4.8c1,41.7,21.4,78.6,52.5,102l0,0c4.4,2.8,8.8,5.8,13.1,8.8
		c0,0,0,0,0,0c19.4,11.2,41.9,17.7,65.8,17.7c72.6,0,131.6-59,131.6-131.6C512,331.5,498,299.4,475.4,275.8z M380.4,483.4
		c-64.3,0-116.6-52.3-116.6-116.6s52.3-116.6,116.6-116.6S497,302.5,497,366.8S444.7,483.4,380.4,483.4z"/>
	<path d="M423.9,218.1c13.7,0,24.9-11.2,24.9-24.9c0-13.7-11.2-24.9-24.9-24.9S399,179.4,399,193.2
		C399,206.9,410.2,218.1,423.9,218.1z M423.9,183.2c5.5,0,9.9,4.5,9.9,9.9s-4.5,9.9-9.9,9.9s-9.9-4.5-9.9-9.9
		S418.4,183.2,423.9,183.2z"/>
	<path d="M382.8,110c-13.7,0-24.9,11.2-24.9,24.9c0,13.7,11.2,24.9,24.9,24.9c13.7,0,24.9-11.2,24.9-24.9
		C407.7,121.2,396.5,110,382.8,110z M382.8,144.9c-5.5,0-9.9-4.5-9.9-9.9c0-5.5,4.5-9.9,9.9-9.9s9.9,4.5,9.9,9.9
		C392.7,140.4,388.3,144.9,382.8,144.9z"/>
	<path d="M76.2,468.4c-3.1,1.6-6.3,3.1-9.4,4.7c-11.7,5.7-25.7,0.7-31.1-11.1l-18.7-41.3c-5.1-11.3-0.4-24.5,10.8-30
		c59.4-29.4,110.3-63.1,147.3-97.5c34.3-31.9,45.9-54.8,48.1-57.9c9.3-13.3,23.2-44,31.6-76.9c9-35.1,13.6-79.3-5.9-110.1
		c48.2,26.9,80.9,78.2,80.9,137.4c0,21.5-4.3,43.4-12.8,65c3.5-1.5,6.5-4.1,10.2-5c2.1-0.6,8-1,8.6-3.5c0-0.2,0.1-0.3,0.2-0.3
		c5.8-18.7,8.8-37.5,8.8-56.1c0-34.6-10.1-67.4-28.8-95.4C322.2,75.7,341,69,355.3,79l1.6,1.1c14.1,9.8,33,9.8,47,0l1.6-1.1
		c13.1-9.1,28.1-4.1,35.5,5.2c2.6,3.2,7.3,3.7,10.5,1.1c3.2-2.6,3.7-7.3,1.1-10.5c-13.5-16.8-38-20.4-55.8-8.1l-1.6,1.1
		c-9,6.2-21,6.2-29.9,0l-1.6-1.1c-19.6-13.6-45-7.6-57.5,10.5c-34.2-41.8-85.7-66.3-142.7-63.3C70.7,18.8-0.8,95.6,0.8,188.9
		c0.9,53.7,26,107.1,74.3,159c-17,10.1-35,19.9-54,29.3c-18.4,9.1-26.3,30.9-17.8,49.7l18.7,41.3c8.8,19.4,31.9,27.9,51.4,18.4
		c3.2-1.6,6.4-3.2,9.6-4.8c3.7-1.9,5.2-6.4,3.3-10.1C84.5,468.1,79.9,466.6,76.2,468.4z M172.9,274.6
		c-22.6-22.4-50.9-57.2-50.9-88.9c0-28.1,22.8-50.9,50.9-50.9c28.1,0,50.9,22.8,50.9,50.9C223.8,217.4,195.5,252.2,172.9,274.6z
		 M106.2,62c13.4-27.1,42.4-34.5,72.7-33.2c30,1.3,50.4,12.4,60.6,33.2c14.9,30.2,6.9,74.4-3,106.6c-7.6-28-33.2-48.7-63.6-48.7
		s-56,20.7-63.6,48.7C99.4,136.4,91.4,92.1,106.2,62z M15.8,188.6C14.8,128.1,47.5,75.1,96.9,48c-19.7,30.7-15.2,75.1-6.1,110.4
		c8.5,32.9,22.3,63.6,31.6,76.9c1.8,2.6,12.2,22.4,39.5,49.7c-20.6,18.8-45.5,37.3-73.7,55C41.1,290.1,16.7,239.2,15.8,188.6z"/>
	<path class="st0" d="M447.4,334.8h-35v-35c0-7.7-6.3-14-14-14h-36c-7.7,0-14,6.3-14,14v35h-35c-7.7,0-14,6.3-14,14v36
		c0,7.7,6.3,14,14,14h35v35c0,7.7,6.3,14,14,14h36c7.7,0,14-6.3,14-14v-35h35c7.7,0,14-6.3,14-14v-36
		C461.4,341.1,455.2,334.8,447.4,334.8z M446.4,383.8h-35c-7.7,0-14,6.3-14,14v35h-34v-35c0-7.7-6.3-14-14-14h-35v-34h35
		c7.7,0,14-6.3,14-14v-35h34v35c0,7.7,6.3,14,14,14h35V383.8z"/>
</g>
</svg>
