<?xml version="1.0" encoding="utf-8"?>
<!-- Generator: Adobe Illustrator 21.0.0, SVG Export Plug-In . SVG Version: 6.00 Build 0)  -->
<svg version="1.1" id="Слой_1" xmlns="http://www.w3.org/2000/svg" xmlns:xlink="http://www.w3.org/1999/xlink" x="0px" y="0px"
	 viewBox="0 0 512 512" style="enable-background:new 0 0 512 512;" xml:space="preserve">
<style type="text/css">
	.st0{fill:#008A34;}
</style>
<g id="outline">
	<path class="st0" d="M255.9,278.9c-86.9-44.4-173.9-9.2-202.6,5.1c1.9,2.6,3.7,5.4,5.8,7.8c1.5,1.7,2.9,3.3,4.6,4.9
		c29.4-14,107.2-42.9,184.4-3.9V368h16v-75.3c71.6-39,152.8-9.9,183.9,4.2c2.2-1.5,4-4.5,5.5-6.5c1.5-2,4.1-4,5.2-6.3
		C428.7,270.1,337.2,234.2,255.9,278.9z"/>
	<path d="M495.9,254.9c-5.8-33.8-16.1-66.6-30.4-97.7C433.9,89.7,387,46.5,329.9,32.2c-21.7-5.4-36.6,7.3-48.5,17.6
		C272.6,57.4,265,64,256,64c-10.4,0-18.2-6.4-27.2-13.8c-12.6-10.4-28.2-23.3-54.4-18C118.5,43.4,73.3,85.7,43.8,154.6
		C30.3,186.8,21,220.6,16.1,255.1c-0.1,0.8-0.1,1.6,0.1,2.4c0,0,43.5,222.6,239.8,222.6s239.8-222.6,239.8-222.6
		C496,256.6,496,255.7,495.9,254.9z M177.6,47.8c18.7-3.8,29.1,4.8,41.1,14.7C228.6,70.7,239.8,80,256,80c15,0,26.1-9.6,35.9-18
		c11-9.5,20.4-17.6,34.2-14.2C379,61,420.9,100,450.7,163.6c8.1,17.5,14.9,35.6,20.2,54.1c-5.6-7.1-12-14.9-19.5-23
		c-6.5-7.2-13.2-14.1-20-20.4c-13.4-12.7-27.8-24.4-43-34.8c-20.3-14-42.6-25-66-32.8c-43.2-14.1-89.7-14.1-132.9,0
		c-23.4,7.7-45.7,18.7-66,32.7c-23.1,15.9-44.2,34.4-63,55.2c-8.3,9.1-15.5,17.8-21.4,25.6C52.7,165,89.1,65.5,177.6,47.8z
		 M426.8,192H408c-8.8,0-16-7.2-16-16v-14.4c9.9,7.5,19.5,15.6,28.5,24.2C422.6,187.8,424.7,189.9,426.8,192z M376,150.4V176
		c0,8.8-7.2,16-16,16h-16c-8.8,0-16-7.2-16-16v-50.3C344.9,132.1,361,140.4,376,150.4z M312,120.3V176c0,8.8-7.2,16-16,16h-16
		c-8.8,0-16-7.2-16-16v-63.6C280.3,113,296.4,115.7,312,120.3z M248,112.4V176c0,8.8-7.2,16-16,16h-16c-8.8,0-16-7.2-16-16v-55.7
		C215.6,115.7,231.7,113,248,112.4z M184,125.7V176c0,8.8-7.2,16-16,16h-16c-8.8,0-16-7.2-16-16v-25.6
		C151,140.4,167.1,132.1,184,125.7z M120,161.7V176c0,8.8-7.2,16-16,16H85.2C96.1,181.1,107.7,171,120,161.7z M437,360.2
		C393.4,429.1,332.5,464,256,464S118.6,429.1,75,360.2c-11.9-19.1-21.9-39.3-29.7-60.5c10.9,13.4,22.7,26.2,35.2,38.1
		C134.3,389,195,416,256,416c100.2,0,173-69.5,210.5-115.8C458.7,321.1,448.8,341.2,437,360.2z M458.5,284.1
		C458.5,284.1,458.5,284.1,458.5,284.1c-0.6,1.4-1.6,2.2-2.6,3.2c-1.3,1.3-2.4,2.8-3.5,4.3c-1.3,1.7-2.7,3.9-4.5,5.2
		c0,0,0.1,0,0.1,0C410.7,340.5,343.7,400,256,400c-71.7,0-129.1-40.1-164.5-73.8c-9.8-9.3-19-19.2-27.8-29.5c0,0,0.1,0,0.1,0
		c-1.8-1.7-3.6-3.4-5.1-5.3c-1.9-2.4-3.5-5-5.3-7.4c0,0,0,0,0,0c-9.8-12.5-16.6-22.7-19.9-28c10.9-17,23.2-33,36.7-48H104
		c9.2,0,18-4.1,24-11.1c6,7,14.8,11,24,11.1h16c9.2,0,18-4.1,24-11.1c6,7,14.8,11,24,11.1h16c9.2,0,18-4.1,24-11.1
		c6,7,14.8,11,24,11.1h16c9.2,0,18-4.1,24-11.1c6,7,14.8,11,24,11.1h16c9.2,0,18-4.1,24-11.1c6,7,14.8,11,24,11.1h33.9
		c13.5,15,25.7,31.1,36.7,48C475.2,261.3,468.4,271.5,458.5,284.1z"/>
</g>
</svg>
