<?xml version="1.0" encoding="utf-8"?>
<!-- Generator: Adobe Illustrator 21.0.0, SVG Export Plug-In . SVG Version: 6.00 Build 0)  -->
<svg version="1.1" id="Capa_1" xmlns="http://www.w3.org/2000/svg" xmlns:xlink="http://www.w3.org/1999/xlink" x="0px" y="0px"
	 viewBox="0 0 480 480" style="enable-background:new 0 0 480 480;" xml:space="preserve">
<style type="text/css">
	.st0{fill:#008A34;}
</style>
<g>
	<g>
		<path d="M296,0v112c-0.1,88.3-71.7,159.9-160,160H72.8c-4,0-7.9-1.3-11.1-3.7l-6.5-4.9c-13.7-10.2-32.9-8.9-45.1,3.2
			C3.6,273,0,281.8,0,291v189h16V291c0-4.9,1.9-9.6,5.4-13.1c6.5-6.5,16.8-7.2,24.2-1.7l6.6,4.9c6,4.5,13.2,6.9,20.7,6.9H136
			c97.2-0.1,175.9-78.8,176-176V0H296z"/>
	</g>
</g>
<g>
	<g>
		<path d="M410.9,80.1c-12.1-0.5-24.1,2.1-34.9,7.5V0h-16v102.1c0,4.4,3.6,8,8,8c1.8,0,3.6-0.6,5-1.8c10.6-8.4,23.8-12.8,37.3-12.3
			c32.1,1.3,53.7,39.8,53.7,96v27.4c-0.1,121.8-98.8,220.5-220.6,220.6c-54.4,0-105.2-27.2-135.4-72.5c-7.3-11-22.2-14.1-33.3-6.7
			c-6.7,4.5-10.7,12-10.7,20V480h16v-99.2c0-4.4,3.6-8,8-8c2.7,0,5.2,1.3,6.7,3.6c33.1,49.8,88.9,79.7,148.7,79.6
			C374,455.9,479.9,350,480,219.4V192C480,126.7,452.2,81.7,410.9,80.1z"/>
	</g>
</g>
<g>
	<g>
		<path class="st0" d="M352,320c-13.3,0-24,10.7-24,24s10.7,24,24,24s24-10.7,24-24S365.3,320,352,320z M352,352c-4.4,0-8-3.6-8-8
			s3.6-8,8-8s8,3.6,8,8S356.4,352,352,352z"/>
	</g>
</g>
<g>
	<g>
		<path class="st0" d="M208,368c-13.3,0-24,10.7-24,24s10.7,24,24,24s24-10.7,24-24S221.3,368,208,368z M208,400c-4.4,0-8-3.6-8-8
			s3.6-8,8-8s8,3.6,8,8S212.4,400,208,400z"/>
	</g>
</g>
<g>
	<g>
		<path class="st0" d="M360,264c-4.4,0-8,3.6-8,8s-3.6,8-8,8s-8-3.6-8-8s-3.6-8-8-8h-88v16h81.4c4.4,12.5,18.1,19.1,30.6,14.6
			c6.8-2.4,12.2-7.8,14.6-14.6H448v-16H360z"/>
	</g>
</g>
<g>
	<g>
		<rect x="264" y="384" class="st0" width="16" height="16"/>
	</g>
</g>
<g>
	<g>
		<rect x="136" y="336" class="st0" width="16" height="16"/>
	</g>
</g>
<g>
	<g>
		<rect x="200" y="288" class="st0" width="16" height="16"/>
	</g>
</g>
<g>
	<g>
		<path class="st0" d="M272,296c-13.3,0-24,10.7-24,24s10.7,24,24,24s24-10.7,24-24S285.3,296,272,296z M272,328c-4.4,0-8-3.6-8-8
			s3.6-8,8-8s8,3.6,8,8S276.4,328,272,328z"/>
	</g>
</g>
<g>
	<g>
		<rect x="408" y="296" class="st0" width="16" height="16"/>
	</g>
</g>
</svg>
