<?xml version="1.0" encoding="utf-8"?>
<!-- Generator: Adobe Illustrator 21.0.0, SVG Export Plug-In . SVG Version: 6.00 Build 0)  -->
<svg version="1.1" id="_x31__px" xmlns="http://www.w3.org/2000/svg" xmlns:xlink="http://www.w3.org/1999/xlink" x="0px" y="0px"
	 viewBox="0 0 512 512" style="enable-background:new 0 0 512 512;" xml:space="preserve">
<style type="text/css">
	.st0{fill:#008A34;}
</style>
<path d="M256,256H74.7C33.5,256,0,222.5,0,181.3s33.5-74.7,74.7-74.7h96c11.8,0,21.3-9.6,21.3-21.3V10.7C192,4.8,196.8,0,202.7,0
	s10.7,4.8,10.7,10.7v74.7c0,23.5-19.1,42.7-42.7,42.7h-96c-29.4,0-53.3,23.9-53.3,53.3s23.9,53.3,53.3,53.3H256
	c5.9,0,10.7,4.8,10.7,10.7S261.9,256,256,256z"/>
<path d="M203.5,384H74.7c-19.9,0-38.7-7.8-52.8-21.9S0,329.2,0,309.3c0-41.2,33.5-74.7,74.7-74.7h203.9c5.9,0,10.7,4.8,10.7,10.7
	s-4.8,10.7-10.7,10.7H74.7c-29.4,0-53.3,23.9-53.3,53.3c0,14.2,5.5,27.6,15.6,37.7c10.1,10.1,23.5,15.6,37.7,15.6h128.9
	c5.9,0,10.7,4.8,10.7,10.7C214.2,379.2,209.4,384,203.5,384L203.5,384z"/>
<path d="M74.7,512c-5.9,0-10.7-4.8-10.7-10.7v-64c0-41.2,33.5-74.7,74.7-74.7h32c5.9,0,10.7,4.8,10.7,10.7s-4.8,10.7-10.7,10.7h-32
	c-29.4,0-53.3,23.9-53.3,53.3v64C85.3,507.2,80.6,512,74.7,512z"/>
<path d="M223.6,320H74.7c-5.9,0-10.7-4.8-10.7-10.7s4.8-10.7,10.7-10.7h148.9c5.9,0,10.7,4.8,10.7,10.7S229.5,320,223.6,320z"/>
<path d="M357.3,213.8c-3,0-5.9-1.2-8-3.6c-10.2-11.7-24.4-18.1-40-18.1h-128c-5.9,0-10.7-4.8-10.7-10.7s4.8-10.7,10.7-10.7h128
	c21.5,0,41.9,9.3,56,25.4c3.9,4.4,3.4,11.2-1,15C362.3,212.9,359.8,213.8,357.3,213.8L357.3,213.8z"/>
<path d="M160,512c-5.9,0-10.7-4.8-10.7-10.7v-32c0-23.5,19.1-42.7,42.7-42.7h31.4c5.9,0,10.7,4.8,10.7,10.7s-4.8,10.7-10.7,10.7H192
	c-11.8,0-21.3,9.6-21.3,21.3v32C170.7,507.2,165.9,512,160,512z"/>
<path d="M223.6,320H74.7c-5.9,0-10.7-4.8-10.7-10.7s4.8-10.7,10.7-10.7h148.9c5.9,0,10.7,4.8,10.7,10.7S229.5,320,223.6,320z"/>
<path d="M224,192H74.7c-5.9,0-10.7-4.8-10.7-10.7s4.8-10.7,10.7-10.7H224c29.4,0,53.3-23.9,53.3-53.3V10.7C277.3,4.8,282.1,0,288,0
	s10.7,4.8,10.7,10.7v106.7C298.7,158.5,265.2,192,224,192z"/>
<path class="st0" d="M352,384c-3.7,0-7.3-1.9-9.3-5.4c-2.9-5.1-1.1-11.6,4-14.5l3.6-2c11.2-6.3,15.3-16.9,10.2-26.3
	c-2.8-5.2-0.9-11.6,4.3-14.4c5.2-2.8,11.6-0.9,14.4,4.3c10.7,19.7,2.9,42.9-18.4,55l-3.6,2C355.6,383.6,353.8,384,352,384z"/>
<path class="st0" d="M373.3,448c-1,0-1.9-0.1-2.9-0.4c-5.7-1.6-9-7.5-7.4-13.1c3-10.6,9.6-19.1,18.7-24.2c9.7-5.4,21.5-6.4,33.3-2.9
	l4,1.2c5.7,1.7,8.9,7.6,7.2,13.3c-1.7,5.7-7.6,8.9-13.3,7.2l-4-1.2c-6.3-1.9-12.2-1.4-16.9,1.2c-4.1,2.3-7.1,6.2-8.5,11.3
	C382.3,444.9,378,448,373.3,448L373.3,448z"/>
<path class="st0" d="M350.9,512c-2.2,0-4.4-0.3-6.6-1.1c-10.5-3.6-15-14-19-23.2c-1.8-4.1-4.2-9.7-6.1-11.1
	c-1.8-1.4-7.6-2.1-11.9-2.6c-9.2-1.1-20.6-2.5-27-11.7c-6.2-8.9-4.1-19.9-2.2-29.6c0.9-4.8,2.1-10.8,1.3-13.4
	c-0.7-2.2-5-6.3-8.1-9.3c-6.8-6.5-15.2-14.6-15.2-26s8.4-19.5,15.3-26c3.1-3,7.4-7.1,8.1-9.3c0.8-2.6-0.3-8.6-1.3-13.4
	c-1.9-9.7-4-20.6,2.2-29.5c6.4-9.2,17.8-10.6,27-11.7c4.2-0.5,10-1.2,11.9-2.6c1.9-1.4,4.3-7,6.1-11.2c4-9.2,8.5-19.6,19-23.2
	c10.3-3.5,20.3,2.3,28.2,7c3.8,2.3,9.1,5.3,11.5,5.3c2.4,0,7.7-3.1,11.5-5.3c8-4.7,17.9-10.5,28.2-7c10.5,3.6,15,14,19,23.2
	c1.8,4.1,4.2,9.7,6.1,11.1c1.8,1.4,7.6,2.1,11.9,2.6c9.2,1.1,20.6,2.5,27,11.7c6.2,8.9,4.1,19.9,2.2,29.6
	c-0.9,4.8-2.1,10.8-1.3,13.4c0.7,2.2,5,6.3,8.1,9.3c6.8,6.5,15.2,14.6,15.2,26s-8.4,19.5-15.3,26c-3.1,3-7.4,7.1-8.1,9.3
	c-0.8,2.6,0.3,8.6,1.3,13.4c1.9,9.7,4,20.6-2.2,29.5c-6.4,9.2-17.8,10.6-27,11.7c-4.2,0.5-10,1.2-11.9,2.6c-1.9,1.4-4.3,7-6.1,11.2
	c-4,9.2-8.5,19.6-19,23.2c-10.4,3.5-20.3-2.3-28.2-7c-3.8-2.3-9.1-5.3-11.5-5.3s-7.7,3.1-11.5,5.3C366.3,507.6,358.8,512,350.9,512
	L350.9,512z M351,277.3C351,277.3,350.9,277.3,351,277.3c-1.6,0.9-4.6,7.8-6.2,11.4c-3.2,7.3-6.4,14.8-12.7,19.6
	c-6.4,4.9-14.8,5.9-22.3,6.8c-3.8,0.4-10.8,1.3-12,2.7c-1,1.8,0.4,9.3,1.2,13.3c1.5,7.5,3.1,16.1,0.7,23.8
	c-2.3,7.5-8.1,13.1-13.7,18.4c-3.3,3.1-8.7,8.3-8.7,10.6c0,2.2,5.4,7.4,8.7,10.5c5.6,5.4,11.4,10.9,13.7,18.4
	c2.4,7.7,0.7,16.3-0.7,23.8c-0.8,4-2.2,11.5-1.2,13.4c1.2,1.4,8.3,2.2,12,2.7c7.4,0.9,15.8,1.9,22.3,6.8c6.3,4.8,9.6,12.3,12.7,19.6
	c1.6,3.7,4.6,10.5,6.4,11.5c1.6,0,7.1-3.3,10.4-5.2c6.6-3.9,14.1-8.3,22.3-8.3c8.2,0,15.7,4.4,22.3,8.3c3.3,1.9,8.6,5.4,10.8,5.1
	c1.5-0.9,4.5-7.8,6.1-11.4c3.2-7.3,6.4-14.8,12.7-19.6c6.4-4.9,14.8-5.9,22.3-6.8c3.8-0.4,10.8-1.3,12-2.7c1-1.8-0.4-9.3-1.2-13.3
	c-1.5-7.5-3.1-16.1-0.7-23.8c2.3-7.5,8.1-13.1,13.7-18.4c3.3-3.1,8.7-8.3,8.7-10.5s-5.4-7.4-8.7-10.5c-5.6-5.4-11.4-10.9-13.7-18.4
	c-2.4-7.7-0.7-16.3,0.7-23.8c0.8-4,2.2-11.5,1.2-13.4c-1.2-1.4-8.3-2.2-12-2.7c-7.4-0.9-15.8-1.9-22.3-6.8
	c-6.3-4.8-9.6-12.3-12.7-19.6c-1.6-3.7-4.6-10.5-6.4-11.5c-1.6,0-7.1,3.3-10.4,5.2c-6.6,3.9-14.1,8.3-22.3,8.3
	c-8.2,0-15.7-4.4-22.3-8.3C358.4,280.5,353,277.3,351,277.3L351,277.3z"/>
</svg>
