<?xml version="1.0" encoding="utf-8"?>
<!-- Generator: Adobe Illustrator 21.0.0, SVG Export Plug-In . SVG Version: 6.00 Build 0)  -->
<svg version="1.1" id="Слой_1" xmlns="http://www.w3.org/2000/svg" xmlns:xlink="http://www.w3.org/1999/xlink" x="0px" y="0px"
	 viewBox="0 0 512 512" style="enable-background:new 0 0 512 512;" xml:space="preserve">
<style type="text/css">
	.st0{fill:#008A34;}
</style>
<g id="outline">
	<path d="M328,16h-48c-4.4,0-8,3.6-8,8v88c0.6,23.5,6.3,46.6,16.8,67.6c4.6,9.3,15.5,38.8,15.5,38.8c3.6,12.4,1.1,25.8-6.8,36.1
		c-7.8,10.8-20.2,17.3-33.5,17.6h-16c-30.9,0-56,25.1-56,56v160c0,4.4,3.6,8,8,8h48c4.4,0,8-3.6,8-8V336h17.2
		c6.9,55.3,39,88,86.8,88c73.8,0,115.2-85.5,120-144v-64c-0.1-48.6-39.4-87.9-88-88h-32c-13.3,0-24-10.7-24-24V24
		C336,19.6,332.4,16,328,16L328,16z M360,144h32c39.7,0,72,32.3,72,72v63.3C460.7,319.6,429.9,408,360,408
		c-58.6,0-69.6-56.4-71.6-80.7c-0.5-4.2-4.1-7.4-8.4-7.3h-32c-4.4,0-8,3.6-8,8v152h-32V328c0-22.1,17.9-40,40-40h16
		c18.4-0.3,35.6-9.2,46.4-24.1c11-14.4,14.4-33.3,9.1-50.7c-0.5-1.2-11.3-30.7-16.3-40.8c-9.4-18.8-14.6-39.4-15.1-60.4V32h32v72
		C320,126.1,337.9,144,360,144L360,144z"/>
	<path d="M304,319.2c0,0.3,0,0.5,0,0.8v8c0,30.2,23.9,64,56,64c41.3,0,70.3-46.5,79.7-77.7c17-56.6,15-104.8-5.5-132.4
		c-9.7-13.7-25.4-21.9-42.2-21.9c-34.1,0-48,18.5-48,64c0,23.4-1.9,33.2-12.9,41.7C307.9,283.6,304.2,317.7,304,319.2z M360,224
		c0-44.6,13.3-48,32-48c11.7,0,22.7,5.8,29.4,15.5c10.6,14.2,15.1,35.8,13.6,62.1c-3.4,1.7-7.2,2.6-11,2.4c-4.4,0.1-8.7-1-12.4-3.2
		c-12.3-6.5-26.9-6.5-39.2,0c-3.7,2.2-8,3.3-12.4,3.2c-1.2,0-2.3-0.1-3.3-0.2C359.4,245.4,360.5,234.7,360,224L360,224z
		 M340.9,278.3c2.9-2.3,5.6-4.9,7.9-7.8c3.6,1,7.4,1.5,11.2,1.5c6.8,0.1,13.6-1.5,19.6-4.8c7.7-4.2,17.1-4.2,24.9,0
		c6,3.3,12.7,4.9,19.6,4.8c3.1,0,6.1-0.3,9.2-1c-2,13.1-4.9,26-8.8,38.7c-7.7,25.6-32,66.3-64.4,66.3c-22.2,0-40-26.3-40-48v-7.5
		C320.4,317.2,324.2,291.2,340.9,278.3L340.9,278.3z"/>
	<path d="M384,312h16v16h-16V312z"/>
	<path d="M352,288h16v16h-16V288z"/>
	<path d="M352,328h16v16h-16V328z"/>
	<path class="st0" d="M144,40C82.1,40,32,90.1,32,152s50.1,112,112,112c28-0.7,54.7-12,74.8-31.6l60.2,7.5c4.4,0.5,8.4-2.6,8.9-7
		c0.2-2-0.3-4-1.4-5.6l-34-47.6c15.4-59.8-20.6-120.8-80.4-136.2C162.9,41.2,153.5,40,144,40L144,40z M262.9,221.8l-45.9-5.7
		c-2.4-0.3-4.8,0.5-6.6,2.2C193,236.5,169.2,247.2,144,248c-53.1,0.1-96.3-42.9-96.4-96s42.9-96.3,96-96.4
		c53.1-0.1,96.3,42.9,96.4,96c0,9.3-1.3,18.5-3.9,27.4c-0.7,2.4-0.3,4.9,1.2,6.9L262.9,221.8z"/>
	<path class="st0" d="M200,160h16v16h-16V160z"/>
	<path class="st0" d="M176,192h16v16h-16V192z"/>
	<path class="st0" d="M88,104h16v16H88V104z"/>
	<path class="st0" d="M64,128h16v16H64V128z"/>
	<path class="st0" d="M152,200c0-13.3-10.7-24-24-24c0-10.1-6.4-19.1-16-22.5V136H96v17.5c-6.8,2.4-12.1,7.8-14.5,14.5H64v16h16
		c0,22.1,17.9,40,40,40h8c3.6,0,7.1-0.8,10.3-2.4l8.1,8.1l11.3-11.3l-8.1-8.1C151.2,207.1,152,203.6,152,200L152,200z M128,208h-8
		c-13.3,0-24-10.7-24-24v-8c0-4.4,3.6-8,8-8s8,3.6,8,8v8c0,4.4,3.6,8,8,8h8c4.4,0,8,3.6,8,8S132.4,208,128,208z"/>
	<path class="st0" d="M186.3,82.3L174,94.7c-6.5-4.3-14.2-6.7-22-6.7V72h-16v17.5c-12.5,4.4-19,18.1-14.6,30.5
		c3.4,9.6,12.5,16,22.6,16c0,9.2,5.4,17.6,13.7,21.6l-5.3,15.9l15.2,5.1l6.5-19.4c10.5-2.8,17.9-12.3,17.9-23.1v-8
		c0-7.8-2.3-15.5-6.7-22l12.3-12.3L186.3,82.3z M176,136c0,4.4-3.6,8-8,8s-8-3.6-8-8v-8c0-4.4-3.6-8-8-8h-8c-4.4,0-8-3.6-8-8
		s3.6-8,8-8h8c13.3,0,24,10.7,24,24V136z"/>
</g>
</svg>
