<?xml version="1.0" encoding="utf-8"?>
<!-- Generator: Adobe Illustrator 21.0.0, SVG Export Plug-In . SVG Version: 6.00 Build 0)  -->
<svg version="1.1" id="Capa_1" xmlns="http://www.w3.org/2000/svg" xmlns:xlink="http://www.w3.org/1999/xlink" x="0px" y="0px"
	 viewBox="0 0 512 512" style="enable-background:new 0 0 512 512;" xml:space="preserve">
<style type="text/css">
	.st0{fill:#008A34;}
</style>
<g>
	<g>
		<path class="st0" d="M211,321.9c-8,18.1-5.9,39.2,5.6,55.2c10.8,14.9,28.8,23.2,47.1,21.4c27-2.6,47.7-25.3,49.3-53.8
			c1.8-32.2,1.4-62.9-1.2-91.3c-0.5-5.5-5.4-9.5-10.9-9.1c-5.5,0.5-9.6,5.4-9.1,10.9c2.5,27.4,2.9,57.1,1.1,88.3
			c-1,18.6-14.2,33.3-31.3,35c-11.6,1.1-22.1-3.7-29-13.2c-7.5-10.3-8.8-23.5-3.5-35.3c19.8-44.6,26.7-94.5,21.2-152.6
			c-3.2-33.4-10.4-67-18.7-98.5c17,25,32.7,54.2,44.3,92.1c1.6,5.3,7.2,8.3,12.5,6.6c5.3-1.6,8.3-7.2,6.6-12.5
			c-19.8-64.6-51.7-106.7-80.2-141c-3-3.7-8.3-4.7-12.5-2.4c-4.2,2.3-6.2,7.2-4.8,11.8C225.7,124.3,252.2,228.9,211,321.9L211,321.9
			z"/>
		<path d="M104.6,382c-17.6,0-32,14.3-32,32s14.3,32,32,32c17.6,0,32-14.3,32-32S122.2,382,104.6,382z M104.6,426
			c-6.6,0-12-5.4-12-12s5.4-12,12-12s12,5.4,12,12S111.2,426,104.6,426z"/>
		<path d="M412.2,382c-17.6,0-32,14.3-32,32s14.3,32,32,32c17.6,0,32-14.3,32-32S429.9,382,412.2,382z M412.2,426
			c-6.6,0-12-5.4-12-12s5.4-12,12-12s12,5.4,12,12S418.8,426,412.2,426z"/>
		<path d="M502,253.7h-43.9c0.1-91.4-31.4-137.3-61.1-173.3c-3-3.7-8.3-4.7-12.5-2.4c-4.2,2.3-6.2,7.2-4.8,11.8
			c16,51.6,31.1,110.8,11.5,163.9H353c-5.3,0-10.5,2.2-14.2,6.1c-3.7,3.9-5.6,9.2-5.4,14.5c0.9,18,1,37,0.3,56.5v0v0
			c-0.2,5.1-0.4,10.2-0.7,15c-2.1,37.2-31.7,69.1-67.3,72.6c-23.3,2.3-46.2-7.4-61.3-25.2c-14.5-17-20.8-39-17.3-60.5
			c1.1-6.5,3-13,5.6-18.9c5-11.4,9.2-23.4,12.2-35.8c1.5-5.9,0.2-12.1-3.6-16.9c-3.7-4.8-9.3-7.5-15.4-7.5h-49.4
			c0.1-91.4-31.4-137.3-61.1-173.3c-3-3.7-8.3-4.7-12.5-2.4c-4.2,2.3-6.2,7.2-4.8,11.8c16,51.6,31.1,110.8,11.5,163.9H10
			c-5.5,0-10,4.5-10,10v199.7c0,3.1,1.4,6,3.9,7.9c2.5,1.9,5.6,2.5,8.6,1.8c17-4.5,34.8-2.1,50,6.8c26.7,15.5,59.9,15.5,86.6-0.1
			c19.9-11.8,46-11.8,66.4,0c26.7,15.5,59.8,15.5,86.5,0c20.3-11.8,46.4-11.8,66.4,0c26.5,15.4,60.1,15.4,86.5,0
			c13-7.6,30.3-10.6,45.1-7.9c2.9,0.5,5.9-0.3,8.2-2.2s3.6-4.7,3.6-7.7V263.7C512,258.2,507.5,253.7,502,253.7L502,253.7z
			 M414,140.4c2.2,4.3,4.3,8.8,6.3,13.6c11.9,28.5,17.8,61.2,17.7,99.7h-25.6C424.4,216.4,421.8,177.6,414,140.4z M492,273.7v47.1
			c-13.1-0.5-27,0.7-38.3,7.2c-23.5,13.5-48,18.8-75,4.4c-7.9-4.2-15.8-7.8-24.7-9.7c0.4-16.8,0.2-33.3-0.6-49L492,273.7L492,273.7z
			 M92.5,140.4c2.2,4.3,4.3,8.8,6.3,13.6c11.9,28.5,17.8,61.2,17.7,99.7H90.9C102.8,216.4,100.3,177.6,92.5,140.4z M20,273.7h165.4
			c-2.8,11.1-6.5,21.9-11,32.1c-2.3,5.1-4.1,10.6-5.5,16.2c-11.3,1.7-22.2,5.6-32,11.6c-19.6,10.4-45,10.2-64.2-1.2
			C56.8,323,38.4,319,20,321.1L20,273.7L20,273.7z M492,451c-16.3-0.6-33.1,3.5-47,11.5c-20.5,11.9-45.9,11.9-66.4,0
			c-26.2-15.5-60.3-15.3-86.6,0c-20.2,11.7-46.3,11.7-66.4,0c-26.6-15.4-60.6-15.4-86.5,0c-20.2,11.7-46.2,11.7-66.4,0
			c-16.1-9.4-34.4-13.2-52.6-11.2V341.3c14.8-2.2,29.8,0.7,42.6,8.3c24.2,14.8,60,16.1,84.5,1.1c5.9-3.6,12.3-6.3,19-7.9
			c-0.4,22.9,7.7,45.4,23,63.3c19.3,22.7,48.8,35.1,78.5,32.1c22.4-2.2,43.5-12.9,59.3-30.2c15.5-16.9,24.7-38.6,26-61.1
			c0.1-1.3,0.1-2.6,0.2-3.8c6.7,1.9,12.5,5.1,18.6,8.4c25.9,13.6,57.9,12.9,83.3-1.8c11.1-6.5,24.1-9.5,36.9-8.8L492,451z"/>
		<path class="st0" d="M291.9,200.4c-5,2.1-7.5,8-5.4,13.1c2.1,5,8,7.5,13.1,5.4c5-2.1,7.5-8,5.4-13.1
			C302.9,200.8,297,198.3,291.9,200.4z"/>
	</g>
</g>
</svg>
