<?xml version="1.0" encoding="utf-8"?>
<!-- Generator: Adobe Illustrator 21.0.0, SVG Export Plug-In . SVG Version: 6.00 Build 0)  -->
<svg version="1.1" id="Слой_1" xmlns="http://www.w3.org/2000/svg" xmlns:xlink="http://www.w3.org/1999/xlink" x="0px" y="0px"
	 viewBox="0 0 496 496" style="enable-background:new 0 0 496 496;" xml:space="preserve">
<style type="text/css">
	.st0{fill:#008A34;}
</style>
<path d="M448.5,72.4L435,76.9V0h-16v99.1l34.5-11.5L448.5,72.4z"/>
<path class="st0" d="M371.2,184l-28.9,0c-19.4,0-38.4,6.8-53.3,19.3c-19,15.9-30,39.2-30,63.9V280h-56v16h56v48h-48v16h48v25.3
	c0,7.5-1,14.8-2.6,21.8c-1.7-1.6-3.4-3.2-5.1-4.9c-10.2-10.1-21.7-21.5-46.8-26c-25.1-4.5-39.9,2.4-52.9,8.4
	c-12.4,5.7-23.2,10.7-43.4,7.1C88,388.3,79.7,380,69.9,370.3c-2.6-2.5-5.3-5.1-8.1-7.7c2.3-9.4,6-18.4,11.1-26.7H123v-16H85.3
	c2.9-3,5.9-5.9,9.3-8.6l9.3-7.4H155v-16h-31.2l137.1-109.7c21.2-17,47.8-26.3,75-26.3h34.9c0-2.2,0-4.2,0-6.4c0-3.2,0.1-6.4,0.1-9.5
	l-35.1-0.1c-30.8,0-60.9,10.6-85,29.8L84.5,298.9C58.1,320,43,351.5,43,385.3c0,61,49.6,110.7,110.7,110.7h10.7
	c61,0,110.7-49.6,110.7-110.7V267.2c0-20,8.8-38.8,24.2-51.7c12.1-10.1,27.4-15.6,43-15.6l29.2,0c-0.2-2.2,0.1-4.6,0.1-6.8
	C371.4,190.1,371.2,187.1,371.2,184z M164.3,480h-10.7c-52.2,0-94.7-42.5-94.7-94.7c0-1.1,0.1-2.1,0.2-3.2
	c10,10,21.6,21.1,46.3,25.5c25.2,4.5,39.9-2.4,52.9-8.4c12.4-5.7,23.2-10.7,43.4-7.1c20.2,3.6,28.6,11.9,38.3,21.6
	c3.4,3.3,6.8,6.7,10.8,10C236.1,456.8,202.9,480,164.3,480z"/>
<path d="M371,0v136h-0.2c0,1.2,0,12.6-0.2,16H387V0H371z"/>
<path d="M448.5,120.4l-29.5,9.8V480h-32V184h-15.9c0,2.8-0.1,5.4-0.1,8.2c0,1.2-0.1,4.5-0.1,8c0,0,0,0.7,0,1.2V496h64V141.8
	l18.5-6.2L448.5,120.4z"/>
</svg>
