<?xml version="1.0" encoding="utf-8"?>
<!-- Generator: Adobe Illustrator 21.0.0, SVG Export Plug-In . SVG Version: 6.00 Build 0)  -->
<svg version="1.1" id="Capa_1" xmlns="http://www.w3.org/2000/svg" xmlns:xlink="http://www.w3.org/1999/xlink" x="0px" y="0px"
	 viewBox="0 0 512 512" style="enable-background:new 0 0 512 512;" xml:space="preserve">
<style type="text/css">
	.st0{fill:#008A34;}
</style>
<g>
	<path d="M371,425.8c-26.2,0-53.6-4.5-80.5-13.7c-3.9-1.3-6-5.6-4.7-9.5c1.3-3.9,5.6-6,9.5-4.7c30.4,10.4,62.4,14.6,92.4,12.1
		c30.1-2.4,56.9-11.5,77.5-26.1c20.4-14.5,26.2-42.8,13.3-64.4l-36.8-61.3c-2.1-3.6-1-8.2,2.6-10.3c3.6-2.1,8.2-1,10.3,2.6
		l12.2,20.4l7.1,3.5c4.4,2.2,8.3,1.5,10.9,0.6c3.3-1.1,6.1-3.4,7.2-5.9c3.3-6.9,4.9-16.7,4.9-29.9c0-20.1-9.8-27.3-18.9-27.5
		c-0.1,0-0.1,0-0.2,0c-6.3,0-12.7,3.5-14.8,9.5l8.3,4c3.7,1.8,5.3,6.3,3.5,10c-1.8,3.7-6.3,5.3-10,3.5l-33.9-16.5
		c-10.9-5.3-20.9-1.2-26.6,4.4c-5.7,5.6-9.9,15.5-4.7,26.5l33.2,70.3c1.8,3.7,0.2,8.2-3.6,10c-3.7,1.8-8.2,0.2-10-3.6l-19.1-40.5
		c-17.5-9.3-38.6-11.6-53.8-11.8l-72.1,42.9c-3.6,2.1-8.2,1-10.3-2.6c-2.1-3.6-1-8.2,2.6-10.3l73.9-44c10.3-6.1,14.1-18.9,9-29.7
		c-4.2-8.8-13.4-14-23.1-13l-11.9,1.2c-3.4,0.3-6.6-1.6-7.8-4.8c-1.6-4.1-5.6-9.5-12.2-12.3c-4.6-1.9-9.5-2.2-14.7-0.9
		c2.8,12.8,1.9,27.3-4.4,42.8l27.4-12.7c3.8-1.7,8.2-0.1,10,3.7c1.7,3.8,0.1,8.2-3.7,10L248,276.2c-6.8,3.2-12.7,8.1-16.9,14.4
		c-3.6,5.5-7.9,16-9.3,19.7c-1.4,3.9-5.8,5.9-9.6,4.4c-3.9-1.4-5.9-5.8-4.4-9.6c0.2-0.6,5.5-14.7,10.9-22.8
		c5.7-8.6,13.7-15.4,23-19.7l11.1-5.1c14.4-21.5,16-40.3,11.1-54.8c-8,5.5-19.1,9.2-29.2,9.4c-4.1,0.1-7.6-3.2-7.6-7.4
		s3.2-7.6,7.4-7.6c8.9-0.2,17.6-4.1,22.4-7.8c-2.8-3.7-6-6.9-9.4-9.5c-2.1-1.6-3.2-4.2-2.9-6.9c0.8-6.1-0.4-10.9-3.3-13.4
		c-3-2.6-8.2-3.2-14.2-1.6c-3.2,0.8-6.6-0.5-8.3-3.4c-3.3-5.5-7.1-10.8-11.4-15.6c-2.7-3.1-2.4-7.9,0.7-10.6
		c3.1-2.7,7.9-2.4,10.6,0.7c3.7,4.2,7,8.7,10.1,13.3c8.8-1.1,16.6,0.9,22.3,5.9c5.9,5.2,8.9,13,8.7,22.3
		c6.1,5.4,11.3,11.9,15.1,19.5c10.9-3.1,19.7-1.2,25.5,1.3c7.4,3.1,13.8,8.7,17.8,15.4l6.7-0.7c15.9-1.6,31.2,7.1,38.1,21.5
		c5.7,11.9,4.7,25.3-1.7,35.8c9.2,0.9,19.4,2.6,29.3,5.8l-4.5-9.6c-7-14.9-4-32,7.7-43.6c11.7-11.6,28.9-14.4,43.7-7.2l12,5.9
		c1.7-4.1,4.4-7.7,7.9-10.6c5.7-4.8,13.1-7.4,20.9-7.3c16.8,0.2,33.7,13.4,33.7,42.5c0,15.4-2.1,27.3-6.3,36.3
		c-2.9,6.1-8.8,11.2-15.9,13.7c-3.6,1.2-7.3,1.8-11,1.6l12.6,20.9c17,28.3,9.3,65.3-17.5,84.3C446.4,415.7,410.1,425.8,371,425.8
		L371,425.8z M265.5,401.3c-1.1,0-2.2-0.2-3.2-0.7c-32.6-15.6-61.3-38.1-83.2-65h-54.4C55.9,335.5,0,279.6,0,210.9
		S55.9,86.2,124.6,86.2c25.9,0,50.8,7.9,71.9,22.8c3.4,2.4,4.2,7.1,1.8,10.5c-2.4,3.4-7.1,4.2-10.5,1.8
		c-18.6-13.1-40.4-20.1-63.3-20.1C64.2,101.2,15,150.4,15,210.9s49.2,109.6,109.6,109.6h58c2.3,0,4.5,1.1,5.9,2.9
		c20.8,26.4,48.5,48.4,80.1,63.6c3.7,1.8,5.3,6.3,3.5,10C270.9,399.7,268.3,401.3,265.5,401.3L265.5,401.3z"/>
</g>
<path class="st0" d="M143.1,293.5c-20.8,0-37.7-16.9-37.7-37.7c0-17.2,14-31.2,31.2-31.2c4.1,0,7.5,3.4,7.5,7.5s-3.4,7.5-7.5,7.5
	c-8.9,0-16.2,7.3-16.2,16.2c0,12.5,10.2,22.7,22.7,22.7c8.9,0,16.2-7.3,16.2-16.2c0-4.1,3.4-7.5,7.5-7.5s7.5,3.4,7.5,7.5
	C174.3,279.5,160.3,293.5,143.1,293.5L143.1,293.5z"/>
<path class="st0" d="M185.4,199.5c-1.5,0-3-0.1-4.5-0.4c-4.1-0.8-6.7-4.7-6-8.8s4.7-6.7,8.8-6c2.3,0.4,4.7,0,6.7-1.4
	c2-1.3,3.3-3.4,3.7-5.7c0.8-4.1,4.7-6.7,8.8-6c4.1,0.8,6.7,4.7,6,8.8c-1.2,6.3-4.8,11.7-10,15.3
	C194.8,198.1,190.2,199.5,185.4,199.5L185.4,199.5z"/>
</svg>
