<?xml version="1.0" encoding="utf-8"?>
<!-- Generator: Adobe Illustrator 24.2.1, SVG Export Plug-In . SVG Version: 6.00 Build 0)  -->
<svg version="1.1" id="Capa_1" xmlns="http://www.w3.org/2000/svg" xmlns:xlink="http://www.w3.org/1999/xlink" x="0px" y="0px"
	 viewBox="0 0 512 512" style="enable-background:new 0 0 512 512;" xml:space="preserve">
<style type="text/css">
	.st0{fill:#4C8641;}
</style>
<g>
	<g>
		<g>
			<path class="st0" d="M379.8,420.9c-3.1-4.6-9.3-5.8-13.9-2.7l-0.3,0.2c-4.6,3.1-5.8,9.3-2.8,13.9c1.9,2.9,5.1,4.5,8.3,4.5
				c1.9,0,3.8-0.5,5.5-1.7l0.4-0.2C381.7,431.7,382.9,425.5,379.8,420.9z"/>
		</g>
	</g>
</g>
<g>
	<g>
		<path class="st0" d="M149,79.7c-3.1-4.6-9.3-5.8-13.9-2.7l-0.3,0.2c-4.6,3.1-5.7,9.3-2.6,13.9c1.9,2.8,5.1,4.4,8.3,4.4
			c1.9,0,3.9-0.6,5.6-1.7l0.2-0.1c0,0,0.1-0.1,0.1-0.1C150.9,90.4,152.1,84.2,149,79.7z"/>
	</g>
</g>
<path d="M512,256c0-67.3-25.8-130.7-72.8-178.8C391.1,27.9,324.9,0,256,0c-54.3,0-106.2,16.8-150.1,48.6l11.7,16.2
	C158.1,35.5,206,20,256,20c130.1,0,236,105.9,236,236c0,59.7-22,116-62.2,159.6l-14.2-14.2c24.6-27,42-59.7,50.5-95.4
	C479.5,250,470.2,192,440,142.9c-30.2-49.2-77.8-83.6-133.9-97C257.3,34.2,205.6,40,160.5,62.2l8.8,17.9
	c40.9-20.1,87.8-25.4,132.1-14.8c105.1,25.1,170.2,131,145.2,236.1c-7.6,32-23.2,61.5-45.2,85.8L220.6,206.5
	c4.5-9,9.1-17.8,13.4-26.2c8.4-16.3,16.1-31.3,22-44.2c5.9,13,13.6,28,22,44.2c14.6,28.3,31.1,60.3,42.8,91.1l18.7-7.1
	c-12.1-31.8-28.9-64.4-43.7-93.2c-14.4-27.8-26.8-51.9-30-65.9c-0.3-1.1-1-2.2-2-3.1c-4.3-4.2-11.3-4.2-15.5,0c-1,0.9-1.7,2-2,3.1
	c-3.3,14-15.7,38.1-30,65.9c-3.4,6.7-7,13.5-10.5,20.4L89.1,75c0,0,0,0,0,0c0,0,0,0,0,0L51.6,37.5L37.5,51.6l30.6,30.6
	c-20.6,22.2-36.9,47.7-48.6,75.8C6.6,189.3,0,222.2,0,256c0,68.4,26.6,132.7,75,181c48.4,48.4,112.6,75,181,75
	c54.3,0,106.2-16.8,150.1-48.6l-11.7-16.2C353.9,476.5,306,492,256,492C125.9,492,20,386.1,20,256c0-59.7,22-116,62.2-159.6
	l14.2,14.2l14.2,14.2l85.8,85.8c-29.8,60.7-55.2,126.4-30,167.7c14.7,24.1,44.9,36.3,89.7,36.3c31.7,0,55.3-5.8,72.1-17.7
	c11.1-7.9,19-18.3,23.4-31.2l71.3,71.3c0,0,0,0,0,0s0,0,0,0l37.5,37.5l14.1-14.1l-30.6-30.6c20.6-22.2,36.9-47.7,48.6-75.8
	C505.4,322.7,512,289.8,512,256z M316.6,380.5c-13.1,9.3-33.5,14-60.6,14c-37.4,0-61.8-9-72.6-26.7c-19.2-31.6,2.4-89.2,27.9-142.3
	l123.8,123.8C333,363,326.9,373.2,316.6,380.5z"/>
<path class="st0" d="M96.4,110.5c-24.6,27-42,59.7-50.5,95.4C32.5,262,41.8,320,72,369.1c30.2,49.2,77.8,83.6,133.9,97
	c16.5,3.9,33.3,5.9,50,5.9c32.9,0,65.7-7.5,95.5-22.2l-8.8-17.9c-40.9,20.1-87.8,25.4-132.1,14.8c-105.1-25.1-170.2-131-145.2-236.1
	c7.6-32,23.2-61.5,45.2-85.8"/>
<g>
	<g>
		<path d="M349.4,294.2l-0.3-0.6c-2.1-5.1-7.9-7.5-13.1-5.4c-5.1,2.1-7.5,7.9-5.4,13.1l0.3,0.7c1.6,3.8,5.3,6.1,9.2,6.1
			c1.3,0,2.6-0.2,3.8-0.8C349.1,305.1,351.5,299.3,349.4,294.2z"/>
	</g>
</g>
<path d="M236.1,352.6c-10.8-1.9-14.6-4.8-15.1-5.7c-0.9-1.7-2.9-7.2-0.4-21.4l-19.7-3.4c-2.6,15.3-1.8,26.6,2.7,34.5
	c4.4,7.8,13.9,12.9,29,15.7c10.6,1.9,21.5,2.2,27,2.2v-20C255.6,354.5,245.5,354.3,236.1,352.6z"/>
</svg>
