<?xml version="1.0" encoding="utf-8"?>
<!-- Generator: Adobe Illustrator 24.2.1, SVG Export Plug-In . SVG Version: 6.00 Build 0)  -->
<svg version="1.1" id="Capa_1" xmlns="http://www.w3.org/2000/svg" xmlns:xlink="http://www.w3.org/1999/xlink" x="0px" y="0px"
	 viewBox="0 0 512 512" style="enable-background:new 0 0 512 512;" xml:space="preserve">
<style type="text/css">
	.st0{fill:#4C8641;}
</style>
<path class="st0" d="M458.3,239.3c0,23.2-5.2,45.5-15.1,65.7c2.7,3.1,5.1,6.5,7.4,9.9c0.4,0.6,0.8,1.2,1.2,1.8
	c12.9-23.7,19.6-50.1,19.6-77.6c0-89.6-72.9-162.6-162.6-162.6c-30.8,0-60.8,8.6-86.7,25l7.1,11.3c23.8-15,51.4-23,79.7-23
	C391.3,89.9,458.3,156.9,458.3,239.3z"/>
<g>
	<path class="st0" d="M143.9,318.8v9.5h-24.6v-9.5H143.9z"/>
	<path class="st0" d="M177.8,297.6c0,8.1-6.7,13.9-14.3,13.9c-8.3,0-14.2-6.1-14.2-13.6c-0.1-7.8,6.3-14,14.3-14
		C172,283.9,177.8,290.1,177.8,297.6z M156.8,297.7c0,4,2.9,7.1,6.8,7.1c3.8,0,6.7-3.1,6.7-7.2c0-3.7-2.3-7.2-6.7-7.2
		C159.4,290.4,156.8,293.9,156.8,297.7z"/>
	<path class="st0" d="M232.7,346.3c-2.6,1.3-8.5,2.7-16.2,2.7c-21.9,0-33.1-13.6-33.1-31.6c0-21.6,15.4-33.6,34.5-33.6
		c7.4,0,13,1.5,15.6,2.8l-2.9,11.3c-2.9-1.2-6.9-2.3-12-2.3c-11.3,0-20.2,6.8-20.2,20.9c0,12.7,7.5,20.6,20.3,20.6
		c4.3,0,9.1-0.9,11.9-2.1L232.7,346.3z"/>
</g>
<g>
	<path d="M402.7,424c-13.3,0-24.2,10.8-24.2,24.2c0,13.3,10.8,24.2,24.2,24.2c13.3,0,24.2-10.8,24.2-24.2
		C426.9,434.8,416.1,424,402.7,424z M402.7,457.3c-5,0-9.2-4.1-9.2-9.2s4.1-9.2,9.2-9.2c5,0,9.2,4.1,9.2,9.2
		S407.8,457.3,402.7,457.3z"/>
	<path d="M176.4,448.1c0,13.3,10.8,24.2,24.2,24.2s24.2-10.8,24.2-24.2c0-13.3-10.8-24.2-24.2-24.2S176.4,434.8,176.4,448.1z
		 M209.7,448.1c0,5-4.1,9.2-9.2,9.2s-9.2-4.1-9.2-9.2s4.1-9.2,9.2-9.2S209.7,443.1,209.7,448.1z"/>
	<path d="M471.8,331.3c16-27.9,24.7-59.8,24.7-92.5c0-87.3-60.1-160.7-141.1-181V15h-91.1v42.7c-30,7.5-57.8,22.4-81,43.8l10.2,11.1
		c31.7-29.3,73-45.4,116.2-45.4c94.6,0,171.5,77,171.5,171.5c0,28.4-7.1,56.1-20.2,80.7L440.5,297l-1.7-1.8
		c7.6-17.3,11.9-36.4,11.9-56.5c0-77.6-63.2-140.7-140.8-140.7c-74.4,0-135.5,58.1-140.5,131.3h-30.8c1.9-34.8,14-67.5,35.4-95.2
		l-11.9-9.2c-23.4,30.4-36.6,66.2-38.5,104.4l-20.6,0.1l0,0H86.9V246H59.5v15h27.4v12.5H39.3v15.1h47.5v15.2H2.4V319h84.5v14.5H39.5
		v15h13.7h33.7v21.9v15v53.1c0,0.5,0,1,0.1,1.5v12.8H103l0,0h18.3v5.2H97.9v15h30.9c4.1,0,7.5-3.4,7.5-7.5v-12.7h6.8
		c2.4,29.6,27.2,53,57.4,53c10,0,19.8-2.6,28.5-7.5l-7.4-13c-6.4,3.6-13.7,5.6-21,5.6c-23.5,0-42.6-19.1-42.6-42.6
		c0-23.5,19.1-42.6,42.6-42.6s42.6,19.1,42.6,42.6c0,6.4-1.4,12.6-4.1,18.3l13.5,6.5c3-6.4,4.8-13.1,5.4-20.1h87.3
		c2.4,29.6,27.2,53,57.4,53s55-23.4,57.4-53h15.4c0.8,0,1.5,0,2.2-0.1h3.7h14.9v-14.9v-5.9v-12.5v-50.8c0-6.7-2.5-13.1-7-18.1
		L471.8,331.3z M340.3,54.6c-9.9-1.6-20.1-2.5-30.4-2.5s-20.4,0.8-30.4,2.5V30.1h60.8V54.6z M453.5,333.5h-55.9v15h69.7l11.1,12.2
		c4.5,5,2.6,10.4,3.1,16.1v15v11.1h-43.1c-9.8-7.7-22.2-12.4-35.6-12.4s-25.8,4.6-35.6,12.4h-81.7V244.3h32.3v82.8v6.4v15h13.9
		c0.4,0,0.8,0.1,1.2,0.1h34.8v-15h-34.8c-0.1,0-0.1,0-0.1-0.1v-89.2h34c3.3,0,6.5,1.4,8.7,3.9L453.5,333.5z M215.9,155.4l14.6,14.6
		l10.7-10.7l-14.7-14.5c20.4-18.1,46.8-29.7,75.8-31.5v20.6h15.1v-20.6c29,1.7,55.4,13.3,75.8,31.5l-14.6,14.6l10.7,10.7l14.6-14.6
		c18.1,20.4,29.7,46.8,31.5,75.8h-20.6v15.1h20.6c-0.7,12.8-3.4,25.1-7.7,36.5L386.6,238c-5.1-5.6-12.3-8.7-19.8-8.7h-39.4
		l15.1-15.1l-10.7-10.7l-14.4,14.4v-36.7h-15.1v48.1h-37.6h-15.8h-64.3C186.6,201,198.1,175.3,215.9,155.4z M143.9,437.8h-42v-19.9
		h49.7C147.8,423.9,145.2,430.6,143.9,437.8z M270.4,437.8h-13.1c-1.3-7.2-3.9-13.9-7.7-19.9h20.8V437.8z M270.4,402.9h-34.2
		c-9.8-7.7-22.2-12.4-35.6-12.4s-25.8,4.6-35.6,12.4v0h-63.1v-17.4h32.5v-15h-32.5v-21.9v-15v-44.9v-15.1v-26c0-1.8,1.5-3.3,3.3-3.3
		h165.3V402.9z M346.1,437.8h-60.7v-19.9h68.3C350,423.9,347.4,430.6,346.1,437.8z M402.7,490.8c-23.5,0-42.6-19.1-42.6-42.6
		c0-23.5,19.1-42.6,42.6-42.6c23.5,0,42.6,19.1,42.6,42.6C445.4,471.6,426.2,490.8,402.7,490.8z M459.4,437.8
		c-1.3-7.2-3.9-13.9-7.7-19.9h29.7v14c0,3.2-2.6,5.9-5.9,5.9h-12.4H459.4z"/>
</g>
</svg>
