<?xml version="1.0" encoding="utf-8"?>
<!-- Generator: Adobe Illustrator 23.0.5, SVG Export Plug-In . SVG Version: 6.00 Build 0)  -->
<svg version="1.1" id="Capa_1" xmlns="http://www.w3.org/2000/svg" xmlns:xlink="http://www.w3.org/1999/xlink" x="0px" y="0px"
	 viewBox="0 0 512 512" style="enable-background:new 0 0 512 512;" xml:space="preserve">
<style type="text/css">
	.st0{fill:#4C8641;}
</style>
<g>
	<g>
		<path class="st0" d="M256,136.9c-56.3,0-102,45.8-102,102s45.8,102,102,102s102-45.8,102-102C358,182.7,312.3,136.9,256,136.9z
			 M326.1,196.4h-26.2c-2-9.6-4.6-18.5-7.8-26.3c-0.9-2.1-1.8-4.1-2.7-6C304.7,170.9,317.5,182.2,326.1,196.4z M238.4,177.7
			c5.2-12.6,12.1-20.8,17.6-20.8c5.5,0,12.4,8.2,17.6,20.8c2.3,5.6,4.3,11.9,5.8,18.7h-46.9C234.1,189.6,236,183.3,238.4,177.7z
			 M177.2,261.5c-2.1-7.2-3.2-14.7-3.2-22.5c0-7.8,1.1-15.4,3.2-22.5h31.9c-0.7,7.3-1.1,14.9-1.1,22.5s0.4,15.2,1.1,22.5H177.2z
			 M185.9,281.5h26.2c1.9,9.6,4.6,18.5,7.8,26.3c0.9,2.1,1.8,4.1,2.7,6C207.3,307,194.5,295.6,185.9,281.5z M219.9,170.1
			c-3.2,7.8-5.9,16.7-7.8,26.3h-26.2c8.6-14.2,21.4-25.5,36.7-32.3C221.6,166,220.7,168,219.9,170.1z M273.6,300.2
			c-5.2,12.6-12.1,20.8-17.6,20.8s-12.4-8.2-17.6-20.8c-2.3-5.6-4.3-11.9-5.8-18.7h46.9C277.9,288.3,276,294.6,273.6,300.2z
			 M282.8,261.5h-53.6c-0.8-7.2-1.2-14.8-1.2-22.5s0.4-15.3,1.2-22.5h53.6c0.8,7.2,1.2,14.8,1.2,22.5
			C284,246.7,283.6,254.2,282.8,261.5z M289.4,313.8c0.9-1.9,1.8-3.9,2.7-6c3.2-7.8,5.9-16.7,7.8-26.3h26.2
			C317.5,295.6,304.7,307,289.4,313.8z M302.9,261.5c0.7-7.3,1.1-14.9,1.1-22.5c0-7.7-0.4-15.2-1.1-22.5h31.9
			c2.1,7.2,3.2,14.7,3.2,22.5s-1.1,15.4-3.2,22.5H302.9z"/>
	</g>
</g>
<g>
	<g>
		<path class="st0" d="M359.1,368.3c-1.9-1.9-4.4-2.9-7.1-2.9s-5.2,1.1-7.1,2.9c-1.9,1.9-2.9,4.4-2.9,7.1c0,2.6,1.1,5.2,2.9,7.1
			c1.9,1.9,4.4,2.9,7.1,2.9c2.6,0,5.2-1.1,7.1-2.9c1.9-1.9,2.9-4.4,2.9-7.1C362,372.7,361,370.1,359.1,368.3z"/>
	</g>
</g>
<g>
	<g>
		<path class="st0" d="M309,365.3H160c-5.5,0-10,4.5-10,10s4.5,10,10,10h149c5.5,0,10-4.5,10-10S314.5,365.3,309,365.3z"/>
	</g>
</g>
<g>
	<g>
		<path class="st0" d="M294.5,409h-77c-5.5,0-10,4.5-10,10s4.5,10,10,10h77c5.5,0,10-4.5,10-10S300,409,294.5,409z"/>
	</g>
</g>
<g>
	<g>
		<path d="M420,234.4c5.5,0,10-4.5,10-10V103.9c0-20.3-12.2-37.9-29.7-45.7V37.7c0-11.3-5-22-13.8-29.2s-20.2-10-31.3-7.8L90,54.1
			c0,0,0,0,0,0c-0.1,0-0.1,0-0.2,0c-0.2,0-0.4,0.1-0.5,0.1c-4.2,1.2-7.3,5-7.3,9.6V502c0,5.5,4.5,10,10,10H380c27.6,0,50-22.4,50-50
			V317c0-5.5-4.5-10-10-10s-10,4.5-10,10v145c0,16.5-13.5,30-30,30H102V73.9H380c16.5,0,30,13.5,30,30v120.5
			C410,229.9,414.5,234.4,420,234.4z M380.4,53.9c-0.1,0-0.2,0-0.3,0H192.4l166.8-33.5c5.2-1,10.6,0.3,14.7,3.7
			c4.1,3.4,6.5,8.4,6.5,13.7L380.4,53.9L380.4,53.9z"/>
	</g>
</g>
<g>
	<g>
		<path d="M427.1,264.4c-1.9-1.9-4.4-2.9-7.1-2.9s-5.2,1.1-7.1,2.9c-1.9,1.9-2.9,4.4-2.9,7.1c0,2.6,1.1,5.2,2.9,7.1
			c1.9,1.9,4.4,2.9,7.1,2.9c2.6,0,5.2-1.1,7.1-2.9c1.9-1.9,2.9-4.4,2.9-7.1C430,268.8,429,266.3,427.1,264.4z"/>
	</g>
</g>
</svg>
