<?xml version="1.0" encoding="utf-8"?>
<!-- Generator: Adobe Illustrator 24.2.1, SVG Export Plug-In . SVG Version: 6.00 Build 0)  -->
<svg version="1.1" id="Capa_1" xmlns="http://www.w3.org/2000/svg" xmlns:xlink="http://www.w3.org/1999/xlink" x="0px" y="0px"
	 viewBox="0 0 512 512" style="enable-background:new 0 0 512 512;" xml:space="preserve">
<style type="text/css">
	.st0{fill:#4C8641;}
</style>
<g>
	<path d="M325.4,415.3c77.6,0,140.8-63.2,140.8-140.8S403,133.8,325.4,133.8s-140.8,63.2-140.8,140.8S247.7,415.3,325.4,415.3z
		 M199.9,267c1.7-29,13.3-55.4,31.5-75.8l14.6,14.6l10.7-10.7L242,180.6c20.4-18.1,46.8-29.7,75.8-31.5v20.6h15.1v-20.6
		c29,1.7,55.4,13.3,75.8,31.5l-14.6,14.6l10.7,10.7l14.6-14.6c18.1,20.4,29.7,46.8,31.5,75.8h-20.6v15.1h20.6
		c-1.7,29-13.3,55.4-31.5,75.8l-14.6-14.6L394.2,354l14.6,14.6c-20.4,18.1-46.8,29.7-75.8,31.5v-20.6h-15.1V400
		c-29-1.7-55.4-13.3-75.8-31.5l14.6-14.6l-10.7-10.7l-14.6,14.6c-18.1-20.4-29.7-46.8-31.5-75.8h20.6V267v0H199.9z"/>
	<path d="M416.8,419.7c-27.3,17.3-59,26.4-91.4,26.4c-94.6,0-171.5-77-171.5-171.5c0-38.3,12.3-74.5,35.7-104.7l-11.9-9.2
		c-25.4,32.9-38.8,72.3-38.8,114c0,102.9,83.7,186.6,186.6,186.6c35.3,0,69.8-9.9,99.5-28.7L416.8,419.7z"/>
	<path class="st0" d="M244.7,148.7c23.8-15,51.4-23,79.7-23c82.4,0,149.4,67,149.4,149.4c0,33.4-10.7,64.9-31.1,91.2l10.4,8
		c22.1-28.7,33.8-63,33.8-99.3c0-89.6-72.9-162.6-162.6-162.6c-30.8,0-60.8,8.6-86.7,25L244.7,148.7z"/>
	<path d="M370.9,93.6v-6.8h0V50.8h-14.2h-0.9H295H294h-14.2V65v21.7v6.8c-30,7.5-57.8,22.4-81,43.8l10.2,11.1
		c31.7-29.3,73-45.4,116.2-45.4c94.6,0,171.5,77,171.5,171.5c0,48.6-20.7,95-56.8,127.5l10.1,11.2C489.5,378,512,327.4,512,274.6
		C512,187.3,451.9,113.9,370.9,93.6z M355.8,86.7v3.7c-9.9-1.6-20.1-2.5-30.4-2.5c-10.3,0-20.4,0.8-30.4,2.5v-3.7V65.9h60.8V86.7z"
		/>
	<polygon points="358,250 347.3,239.3 332.9,253.7 332.9,217 317.8,217 317.8,272.3 332,276 	"/>
	<rect x="7.5" y="268.7" width="96.2" height="15.1"/>
	<rect x="37.6" y="224.8" width="76.2" height="15.1"/>
	<rect x="61.4" y="180.9" width="62.5" height="15.1"/>
	<rect x="37.6" y="309.2" width="76.2" height="15.1"/>
	<rect x="61.4" y="353.2" width="62.5" height="15.1"/>
</g>
<g>
	<g>
		<path class="st0" d="M232.5,148.2c-2.4-3.6-7.3-4.6-10.9-2.1l-0.2,0.2c-3.6,2.4-4.5,7.3-2,10.9c1.5,2.2,4,3.5,6.5,3.5
			c1.5,0,3.1-0.5,4.4-1.3l0.2-0.1l0.1-0.1C234,156.6,234.9,151.7,232.5,148.2z"/>
	</g>
</g>
<g>
	<path d="M108.4,152.7v-15.4H79.9v-9.8l24.4-39.2h18.4V126h7.7v11.3h-7.7v15.4H108.4z M108.4,126v-14.3c0-3.9,0.2-7.8,0.5-12h-0.4
		c-2.1,4.2-3.8,7.9-5.9,12l-8.6,14.1v0.2H108.4z"/>
	<path d="M138.6,82.3h15.1V110h0.2c1.6-2.1,3.6-3.7,5.9-5c2.2-1.2,5.1-1.9,7.8-1.9c9.6,0,16.9,6.6,16.9,21.2v28.3h-15.1V126
		c0-6.3-2.2-10.7-7.8-10.7c-4,0-6.4,2.6-7.5,5.3c-0.4,1-0.5,2.3-0.5,3.4v28.7h-15.1V82.3z"/>
</g>
</svg>
