<?xml version="1.0" encoding="utf-8"?>
<!-- Generator: Adobe Illustrator 23.0.5, SVG Export Plug-In . SVG Version: 6.00 Build 0)  -->
<svg version="1.1" id="Layer_1" xmlns="http://www.w3.org/2000/svg" xmlns:xlink="http://www.w3.org/1999/xlink" x="0px" y="0px"
	 viewBox="0 0 512 512" style="enable-background:new 0 0 512 512;" xml:space="preserve">
<style type="text/css">
	.st0{fill:#4C8641;}
</style>
<g>
	<g>
		<path class="st0" d="M207.1,80.1c-14.4,0-26.2,11.7-26.2,26c0,14.4,11.7,26.2,26.2,26.2c14.4,0,26.2-11.7,26.2-26.2
			C233.3,91.8,221.5,80.1,207.1,80.1z M207.1,112c-3.2,0-5.8-2.5-5.8-5.8c0-3.2,2.5-5.7,5.8-5.7c3.3,0,5.8,2.4,5.8,5.7
			C212.9,109.4,210.3,112,207.1,112z"/>
	</g>
</g>
<g>
	<g>
		<path class="st0" d="M304.9,80.1c-14.4,0-26.2,11.7-26.2,26c0,14.4,11.7,26.2,26.2,26.2c14.4,0,26.2-11.7,26.2-26.2
			C331.1,91.8,319.3,80.1,304.9,80.1z M304.9,112c-3.2,0-5.8-2.5-5.8-5.8c0-3.2,2.5-5.7,5.8-5.7c3.3,0,5.8,2.4,5.8,5.7
			C310.7,109.4,308.1,112,304.9,112z"/>
	</g>
</g>
<g>
	<g>
		<path d="M425,155.4h-1.3c-7,0-13.7,1.9-19.4,5.1v-10.6c0-43.9-25.4-84.7-67-108.3l24.2-24.2c4-4,4-10.4,0-14.4c-4-4-10.4-4-14.4,0
			l-29.3,29.3c-19.5-7.8-40.3-11.7-61.8-11.7c-21.6,0-42.4,3.9-61.9,11.7L164.9,3c-4-4-10.4-4-14.4,0c-4,4-4,10.4,0,14.4l24.2,24.2
			c-41.6,23.6-67,64.4-67,108.3v10.6c-5.7-3.2-12.4-5.1-19.4-5.1H87c-22,0-39.9,17.9-39.9,39.9v129.5c0,22,17.9,40,39.9,40h1.3
			c7,0,13.7-1.9,19.4-5.1v15c0,20.7,17,37.5,37.9,37.5h19v59.8c0,22,17.9,39.9,40,39.9h1.2c22,0,40-17.9,40-39.9v-59.8h20.5v59.8
			c0,22,17.9,39.9,39.9,39.9h1.2c22,0,39.9-17.9,39.9-39.9v-59.8h19c20.9,0,37.9-16.8,37.9-37.5v-15c5.7,3.2,12.4,5.1,19.4,5.1h1.3
			c22,0,39.9-17.9,39.9-40V195.4C464.9,173.4,447,155.4,425,155.4z M107.7,324.9c0,10.8-8.7,19.6-19.4,19.6H87
			c-10.8,0-19.5-8.8-19.5-19.6V195.4c0-10.8,8.8-19.5,19.5-19.5h1.3c10.7,0,19.4,8.8,19.4,19.5L107.7,324.9L107.7,324.9z
			 M383.9,374.8L383.9,374.8c0,9.3-8,17.1-17.5,17.1h-29.2c-5.6,0-10.2,4.6-10.2,10.2v70c0,10.8-8.8,19.5-19.5,19.5h-1.2
			c-10.8,0-19.5-8.8-19.5-19.5v-70c0-5.6-4.6-10.2-10.2-10.2h-40.9c-5.6,0-10.2,4.6-10.2,10.2v70c0,10.8-8.8,19.5-19.6,19.5h-1.2
			c-10.8,0-19.6-8.8-19.6-19.5v-70c0-5.6-4.6-10.2-10.2-10.2h-29.2c-9.7,0-17.5-7.7-17.5-17.1V169.4h190.1c5.6,0,10.2-4.6,10.2-10.2
			c0-5.6-4.6-10.2-10.2-10.2H128.1c0.4-38.5,24.7-74.2,63.6-93.4l8.8-4c17.4-7.1,36-10.7,55.4-10.7c19.3,0,38,3.6,55.4,10.7l8.8,4
			c39.3,19.3,63.7,55.4,63.7,94.3V374.8z M444.5,324.9c0,10.8-8.8,19.6-19.5,19.6h-1.3c-10.7,0-19.4-8.8-19.4-19.6V195.4
			c0-10.8,8.7-19.5,19.4-19.5h1.3c10.8,0,19.5,8.8,19.5,19.5L444.5,324.9L444.5,324.9z"/>
	</g>
</g>
<g>
	<g>
		<path class="st0" d="M358,149h-3.1c-5.6,0-10.2,4.6-10.2,10.2s4.6,10.2,10.2,10.2h3.1c5.6,0,10.2-4.6,10.2-10.2S363.6,149,358,149
			z"/>
	</g>
</g>
</svg>
