<?xml version="1.0" encoding="utf-8"?>
<!-- Generator: Adobe Illustrator 24.0.1, SVG Export Plug-In . SVG Version: 6.00 Build 0)  -->
<svg version="1.1" id="Слой_1" xmlns="http://www.w3.org/2000/svg" xmlns:xlink="http://www.w3.org/1999/xlink" x="0px" y="0px"
	 viewBox="0 0 255.1 74.7" style="enable-background:new 0 0 255.1 74.7;" xml:space="preserve">
<style type="text/css">
	.st0{fill-rule:evenodd;clip-rule:evenodd;fill:#12913F;}
</style>
<g>
	<rect x="183.3" y="30.1" class="st0" width="2.8" height="2.5"/>
	<path class="st0" d="M200.2,35c-0.9-0.5-2-0.8-3.2-0.8c-1.2,0-2.2,0.3-3.2,0.8c-1,0.5-1.7,1.3-2.2,2.2c-0.5,0.9-0.8,1.9-0.8,3
		c0,1.1,0.3,2.1,0.8,3c0.5,0.9,1.3,1.7,2.2,2.2c0.9,0.5,2,0.8,3.2,0.8c0.9,0,1.7-0.2,2.5-0.5c0.8-0.3,1.4-0.8,2-1.3
		c0.5-0.5,1-1.2,1.3-1.9c0.3-0.7,0.5-1.5,0.5-2.3c0-1.1-0.3-2.1-0.8-3C201.9,36.2,201.2,35.5,200.2,35z M199.6,42.9
		c-0.6,0.7-1.5,1.1-2.5,1.1c-1,0-1.9-0.4-2.5-1.1c-0.7-0.7-1-1.6-1-2.6c0-1.1,0.3-1.9,1-2.7c0.6-0.7,1.5-1.1,2.5-1.1
		c1,0,1.9,0.4,2.5,1.1c0.7,0.7,1,1.6,1,2.6C200.6,41.3,200.2,42.1,199.6,42.9z"/>
	<rect x="183.4" y="34.4" class="st0" width="2.7" height="11.6"/>
	<path class="st0" d="M158.9,35c-0.9-0.5-2-0.8-3.2-0.8c-1.2,0-2.2,0.3-3.2,0.8c-1,0.5-1.7,1.3-2.2,2.2c-0.5,0.9-0.8,1.9-0.8,3
		c0,1.1,0.3,2.1,0.8,3c0.5,0.9,1.3,1.7,2.2,2.2c0.9,0.5,2,0.8,3.2,0.8c0.9,0,1.7-0.2,2.5-0.5c0.8-0.3,1.4-0.8,2-1.3
		c0.5-0.5,1-1.2,1.3-1.9c0.3-0.7,0.5-1.5,0.5-2.3c0-1.1-0.3-2.1-0.8-3C160.6,36.2,159.9,35.5,158.9,35z M158.3,42.9
		c-0.6,0.7-1.5,1.1-2.5,1.1c-1,0-1.9-0.4-2.5-1.1c-0.7-0.7-1-1.6-1-2.6c0-1.1,0.3-1.9,1-2.7c0.6-0.7,1.5-1.1,2.5-1.1
		c1,0,1.9,0.4,2.5,1.1c0.7,0.7,1,1.6,1,2.6C159.3,41.3,158.9,42.1,158.3,42.9z"/>
	<path class="st0" d="M176.9,35.7c-0.5-0.5-1.1-0.9-1.7-1.2c-0.6-0.3-1.3-0.4-2-0.4c-1.6,0-2.9,0.7-3.9,2.2V30h-2.7v16h2.7v-1.8
		c1,1.4,2.3,2,3.9,2c0.7,0,1.4-0.1,2-0.4c0.6-0.3,1.2-0.7,1.7-1.2c0.5-0.5,0.9-1.1,1.2-1.9c0.3-0.8,0.5-1.6,0.5-2.5
		c0-0.9-0.1-1.8-0.5-2.6C177.8,36.9,177.4,36.2,176.9,35.7z M174.9,42.9c-0.6,0.7-1.4,1-2.4,1c-0.9,0-1.7-0.3-2.4-1
		c-0.7-0.7-1-1.6-1-2.7c0-1.1,0.3-2,1-2.7c0.7-0.7,1.5-1,2.4-1c0.9,0,1.7,0.3,2.3,1c0.6,0.7,1,1.6,1,2.7
		C175.9,41.3,175.6,42.2,174.9,42.9z"/>
	<path class="st0" d="M221.4,34.2c-1.6,0-2.9,0.7-3.9,2c-0.3-0.6-0.8-1.1-1.3-1.5c-0.6-0.4-1.3-0.5-2.1-0.5c-0.8,0-1.5,0.2-2,0.5
		c-0.6,0.4-1,0.8-1.5,1.4v-1.7h-2.7V46h2.7v-6.5c0-0.9,0.2-1.6,0.7-2.1c0.5-0.5,1.1-0.8,1.8-0.8c0.7,0,1.3,0.2,1.7,0.7
		c0.4,0.5,0.6,1.2,0.6,2.1V46h2.7v-6.5c0-0.9,0.2-1.6,0.7-2.1c0.5-0.5,1.1-0.8,1.8-0.8c0.7,0,1.3,0.2,1.7,0.7
		c0.4,0.5,0.6,1.2,0.6,2.1V46h2.7v-7.4c0-1.4-0.4-2.5-1.1-3.3C223.7,34.6,222.7,34.2,221.4,34.2z"/>
	<path class="st0" d="M241.3,40.4c0-0.7-0.1-1.3-0.2-1.9c-0.1-0.6-0.4-1.2-0.7-1.7c-0.3-0.5-0.7-1-1.1-1.4c-0.4-0.4-1-0.7-1.6-0.9
		c-0.6-0.2-1.3-0.3-2-0.3c-1.1,0-2.1,0.3-2.9,0.8c-0.9,0.5-1.5,1.3-2,2.2c-0.5,0.9-0.7,1.9-0.7,3c0,1.2,0.3,2.2,0.8,3.2
		c0.5,0.9,1.2,1.6,2.1,2.1c0.9,0.5,1.9,0.7,3,0.7c2,0,3.5-0.7,4.7-2.2l-1.6-1.4c-0.5,0.5-1,0.8-1.5,1c-0.5,0.2-1.1,0.3-1.7,0.3
		c-0.9,0-1.6-0.3-2.2-0.8c-0.6-0.5-1-1.2-1.1-2.2h8.5C241.3,41,241.3,40.7,241.3,40.4z M232.7,39.4c0.1-0.9,0.5-1.6,1-2.2
		c0.5-0.6,1.2-0.8,2-0.8c0.8,0,1.5,0.3,2,0.9c0.5,0.6,0.8,1.3,0.9,2.2H232.7z"/>
	<rect x="116.9" y="30.1" class="st0" width="2.8" height="2.5"/>
	<path class="st0" d="M143.8,34.9c-0.7,0.5-1.2,1.2-1.6,2.1v-2.6h-2.7V46h2.7v-4.4c0-1.5,0.4-2.6,1.1-3.4c0.7-0.8,1.7-1.2,2.9-1.2
		h0.1v-2.8c-0.1,0-0.2,0-0.2,0C145.2,34.2,144.5,34.4,143.8,34.9z"/>
	<rect x="117" y="34.4" class="st0" width="2.7" height="11.6"/>
	<polygon class="st0" points="103.7,37.9 99,30.6 96.1,30.6 96.1,46 98.8,46 98.8,35 103.6,42.2 103.7,42.2 108.5,35 108.5,46 
		111.2,46 111.2,30.6 108.3,30.6 	"/>
	<path class="st0" d="M132.2,43.6c-0.5,0.3-1,0.4-1.6,0.4c-1,0-1.8-0.4-2.5-1.1c-0.7-0.7-1-1.6-1-2.7c0-1,0.3-1.9,0.9-2.7
		c0.6-0.7,1.4-1.1,2.4-1.1c0.6,0,1.2,0.1,1.6,0.4c0.5,0.2,0.9,0.6,1.4,1.1l1.7-1.8c-0.6-0.6-1.2-1.1-2-1.5c-0.7-0.3-1.6-0.5-2.7-0.5
		c-1.1,0-2.2,0.3-3.1,0.8c-0.9,0.5-1.6,1.3-2.2,2.2c-0.5,0.9-0.8,1.9-0.8,3c0,1.1,0.3,2.1,0.8,3c0.5,0.9,1.2,1.7,2.1,2.2
		c0.9,0.5,1.9,0.8,3.1,0.8c1.1,0,2-0.2,2.7-0.6c0.7-0.4,1.4-0.9,2.1-1.6l-1.6-1.6C133.1,43,132.6,43.3,132.2,43.6z"/>
	<path class="st0" d="M66.7,6.6c-1.6-0.9-3.2-1.7-4.9-2.3C58,2.8,53.8,2,49.4,2C45,2,40.8,2.8,37,4.3c-1.7,0.6-3.3,1.4-4.9,2.3
		C21.6,12.6,14.4,24,14.4,37c0,13,7.1,24.3,17.7,30.4c1.6,0.9,3.2,1.7,4.9,2.3c2.2,0.8,4.4,1.4,6.8,1.8c0.1,0.1,0.3,0.1,0.4,0.1
		c0,0,0,0,0.1,0c1.7,0.2,3.4,0.4,5.1,0.4c4.4,0,8.6-0.8,12.4-2.3c1.7-0.6,3.3-1.4,4.9-2.3C77.2,61.3,84.4,50,84.4,37
		C84.4,24,77.2,12.6,66.7,6.6z M78.7,32.6c-0.2,0.1-0.5,0.2-0.8,0.3c-3.5,1.5-7.2,1.9-10.9,2.2c-0.2-1.6-0.8-3.2-1.7-4.6
		c3.5-0.3,7.1-0.4,11.6-1.8c0.3-0.1,0.6-0.2,0.9-0.3C78.2,29.8,78.5,31.2,78.7,32.6z M69.5,58.8c-2.5,0.2-5.4,0.5-8.2,0.8
		c-0.9-0.8-1.8-1.6-2.7-2.3c-0.6-0.4-1.2-0.9-1.7-1.3c3.2-0.8,6.5-1.2,10.3-1.6c1.8-0.2,4.3-0.3,6.7-0.6
		C72.6,55.6,71.1,57.3,69.5,58.8z M23.5,22.6c1.9,2.4,4.8,4.9,6.4,5.9c1.5,0.9,3.1,1,4.7,0.4c-1,1.3-1.8,2.7-2.3,4.2
		c-3.4,0.5-6.3-1.8-9.8-8.5C22.8,23.9,23.1,23.3,23.5,22.6z M25.6,19.3c0.4,0.5,0.8,0.9,1.3,1.5c6.3,6.5,9.1,3.4,14-1.2
		c0.4-0.4,0.9-0.8,1.3-1.2c0.7,0.5,1.4,1,2.1,1.5c-0.7,0.7-1.5,1.4-2.4,2.2c-0.6,0.4-1.2,0.9-1.8,1.4c-1.7,1.3-3.2,2.7-4.5,4.2
		c-4.7,2.7-8.3-3.2-11.3-6.6C24.8,20.5,25.2,19.9,25.6,19.3z M28,16.4c2.2,2.5,6.2,4.3,10,1.3c0.6-0.5,1.1-0.9,1.6-1.4
		c0.3,0.2,0.6,0.5,0.8,0.7c0.3,0.2,0.6,0.4,0.9,0.7c-4.1,4.5-7.6,7.5-13.4,2.1c-0.7-0.7-1.2-1.1-1.5-1.5C26.9,17.6,27.5,17,28,16.4z
		 M31.2,13.6c1.3,1.1,3.3,1.9,5.8,0.3c0.6,0.6,1.2,1.1,1.8,1.7c-1.9,1.8-3.9,2.9-6.1,2.2c-1.1-0.3-2.1-1.2-2.8-2
		c-0.2-0.2-0.4-0.4-0.6-0.6C29.8,14.7,30.5,14.1,31.2,13.6z M42.5,8.1c1-0.3,2.1-0.4,3.2-0.6c-1.1,1.2-2.2,2.7-3.4,4.1
		c-0.5-0.4-1-0.9-1.5-1.3C41.4,9.6,42,8.9,42.5,8.1z M49.4,7.3c1.5,0,3,0.1,4.5,0.4c-2.6,1.2-5.2,2.9-7,4.5
		c-0.6,0.5-1.2,1.1-1.8,1.7c-0.6-0.5-1.2-0.9-1.8-1.4c0.8-1,1.7-2,2.8-3.1c0.7-0.7,1.1-1.2,1.8-1.9c0,0,0.1-0.1,0.1-0.1
		C48.5,7.3,48.9,7.3,49.4,7.3z M54.2,26.7c1.5,1.2,3,2.3,4.2,3.5c-3.7,0.8-7.9,2.5-14.2,6.5c-2.1,1.3-4.1,2.9-6,4.1
		c-0.6-0.9-1-1.8-1.1-2.7c2.1-1.2,4.1-2.9,5.6-4C47.6,30.4,50.6,28.1,54.2,26.7z M44.9,47.6c-1-0.8-1.9-1.5-2.8-2.3
		c1.6-1.1,3.2-2.2,4.7-2.9C53,39.6,54.9,38,61.9,37c0,1.7-0.8,3.3-2,4.9C53.7,43.2,48.9,45.5,44.9,47.6z M61.8,35.7
		c-9.1,1.2-15.6,5.4-20.7,8.7c-0.8-0.8-1.6-1.6-2.2-2.4c1.7-1.1,3.2-2.3,4.6-3.2c6.8-4.6,11.7-6.5,15.9-7.3
		C60.6,32.8,61.5,34.2,61.8,35.7z M23.8,28.7c2.8,3.3,5.1,5.7,8,5.9c-0.2,0.8-0.3,1.6-0.3,2.4c0,0.3,0,0.7,0,1
		c-4.7-0.3-7.8-5.1-10.4-10.1c0.2-0.6,0.4-1.1,0.6-1.7C22.6,27.2,23.5,28.2,23.8,28.7z M20.6,29.8c1.8,3.1,3.9,5.5,6.7,8
		c1.5,1.3,3,1.8,4.5,1.9c0.3,1.2,0.7,2.3,1.3,3.3c-3.9,0.7-7.9-1.6-13-11.1C20.3,31.2,20.5,30.5,20.6,29.8z M26.8,42.5
		c2.4,2,4.8,2.3,7.1,1.7c0.7,1,1.5,2,2.4,2.9c-3.3,1.7-6.2,2.2-9-0.4c-3.3-2.9-5.5-6-7.6-10.1c0-0.8,0-1.5,0.1-2.3
		C22.1,37.7,25.2,41.1,26.8,42.5z M26.9,48.3c3.7,2.6,7.2,1.8,10.5,0c0.8,0.7,1.6,1.4,2.4,2.1c-5.3,2.9-9.2,4.4-14.2,0.7
		c-1.4-1-3.2-3.4-4.9-6.3c-0.5-1.7-0.8-3.4-0.9-5.2C21.8,43,24,46.3,26.9,48.3z M22.5,49.5c1.2,1.4,2.4,2.6,3.5,3.4
		c8.1,6.1,16.1-5,32.4-9.1c-2.4,2.4-5.6,4.7-9,7c-0.5,0.3-1,0.7-1.5,1c-1.5,0.6-3,1.3-4.7,2.1c-4.3,2-9.6,5.6-14.5,4.4
		C26.2,55.7,24.1,52.8,22.5,49.5z M41.7,56.2c-2.7,2-5.2,4.2-7,6.5c-1.4-0.8-2.8-1.8-4-2.8C34.2,59.9,38,58,41.7,56.2z M39.6,65
		c1.3-1.5,3-2.9,4.9-4.3c2.3-1,4.4-1.9,6.1-2.7c1.2,0.8,2.3,1.6,3.4,2.4c0.1,0.1,0.2,0.2,0.3,0.3c-0.4,0.1-0.8,0.2-1.1,0.3
		c-4.4,1.2-7.8,3-11.5,4.6C41,65.4,40.3,65.2,39.6,65z M44.6,65.9c5.4-2.2,8.4-3.3,11.3-4c1.2,1,2.4,2,3.3,3.1
		c-3.1,1.1-6.4,1.7-9.8,1.7c-1.8,0-3.6-0.2-5.4-0.5C44.2,66.1,44.4,66,44.6,65.9z M64.2,62.7c-0.5-0.6-1-1.2-1.6-1.8
		c1.4-0.1,3.1-0.3,5.1-0.5C66.5,61.2,65.4,62,64.2,62.7z M74.9,52.1c-2.8,0.5-6,0.7-8.7,1c-4,0.4-7.6,1.1-10.7,1.9
		c-0.5-0.3-1-0.7-1.4-1c2.2-1.5,4.3-3,6.1-4.7c7.8-1.7,12.5-1,17.1-2.2C76.6,48.9,75.9,50.5,74.9,52.1z M77.9,45.3
		c-5,1.7-9.1,1-15.7,2.2c1.5-1.6,2.8-3.2,3.7-5c3.4-0.4,9.1-1,13-2.2C78.7,42,78.4,43.7,77.9,45.3z M79.1,37c0,0.5,0,1,0,1.4
		c-1.9,0.7-3.9,1.5-5.5,1.8c-2.4,0.4-4.7,0.6-7.1,0.9c0.5-1.3,0.7-2.6,0.7-4c0-0.2,0-0.3,0-0.5c3.7-0.3,8.4-0.9,11.7-2.2
		C79,35.2,79.1,36.1,79.1,37z M64.6,29.3c-1.1-1.5-2.5-3-4.1-4.3c1.9-0.3,4.1-0.6,6.7-0.8c0.6,0,5.6-0.8,8.3-1.2
		c0.7,1.3,1.3,2.6,1.8,4C71.9,28.7,68.1,29,64.6,29.3z M71,22.2c-5.5,0.6-9.2,1.1-12,1.5c0,0,0,0,0,0c0,0,0,0,0,0
		c-8.7,1.5-8.3,3.4-20.9,12.1c-0.4,0.3-0.7,0.5-1.1,0.7c0.2-1.9,1.3-3.8,3-5.6c12.7-10.1,13.7-11.5,32.2-13c1,1.1,1.9,2.4,2.6,3.6
		C73.4,21.7,72.1,22,71,22.2z M71,16.7c-5.2-0.2-10.9,0.8-15.7,2.5c1.1-0.8,2.2-1.6,3.3-2.4c1.8-1.4,3.4-2.9,4.8-4.5
		c0.7-0.1,1.4-0.2,2.2-0.2C67.5,13.4,69.4,14.9,71,16.7z M54.9,13c-2.4,0.8-4.3,1.9-6.3,3.4c-0.8-0.6-1.6-1.1-2.4-1.7
		c2.7-2.6,5.8-5,10-6.6c1.1,0.3,2.1,0.5,3.1,0.9C58.1,10.4,56.6,11.7,54.9,13z M39.9,8.9c-0.1,0.1-0.1,0.2-0.2,0.3
		C39.6,9.1,39.6,9,39.5,9C39.6,8.9,39.8,8.9,39.9,8.9z M36,12.9c-1,0.5-2.2,0.5-3.6-0.2c0.7-0.5,1.4-1,2.2-1.4
		C35,11.8,35.5,12.4,36,12.9z"/>
</g>
</svg>
