<?xml version="1.0" encoding="utf-8"?>
<!-- Generator: Adobe Illustrator 24.0.1, SVG Export Plug-In . SVG Version: 6.00 Build 0)  -->
<svg version="1.1" id="Слой_1" xmlns="http://www.w3.org/2000/svg" xmlns:xlink="http://www.w3.org/1999/xlink" x="0px" y="0px"
	 viewBox="0 0 394.5 122.1" style="enable-background:new 0 0 394.5 122.1;" xml:space="preserve">
<style type="text/css">
	.st0{fill:#129046;}
	.st1{fill-rule:evenodd;clip-rule:evenodd;fill:#129046;}
</style>
<g>
	<path class="st0" d="M379.2,64.9h10.3c-0.2-1.6-0.7-2.8-1.6-3.8c-0.9-1-2.1-1.5-3.5-1.5c-1.4,0-2.6,0.5-3.5,1.5
		C380,62.1,379.4,63.4,379.2,64.9 M374.6,66.3c0-1.9,0.4-3.7,1.3-5.3c0.8-1.6,2-2.9,3.5-3.8c1.5-0.9,3.2-1.4,5.1-1.4
		c1.3,0,2.4,0.2,3.5,0.6c1.1,0.4,2,0.9,2.7,1.6c0.8,0.7,1.4,1.5,1.9,2.4c0.5,0.9,0.9,1.9,1.2,3c0.3,1.1,0.4,2.2,0.4,3.3
		c0,0.6,0,1-0.1,1.3h-14.8c0.2,1.6,0.9,2.9,1.9,3.8c1,0.9,2.3,1.3,3.8,1.3c1.1,0,2.1-0.2,2.9-0.6c0.9-0.4,1.7-1,2.5-1.8l2.7,2.4
		c-2.1,2.5-4.8,3.8-8.2,3.8c-1.9,0-3.7-0.4-5.2-1.3c-1.6-0.9-2.8-2.1-3.7-3.7C375,70.2,374.6,68.4,374.6,66.3z M336.1,76.4V56.3h4.6
		v3c0.8-1.1,1.6-1.9,2.6-2.5c1-0.6,2.1-0.9,3.5-0.9c1.4,0,2.6,0.3,3.6,0.9c1,0.6,1.8,1.5,2.3,2.6c1.8-2.4,4.1-3.5,6.8-3.5
		c2.2,0,3.9,0.7,5.2,2c1.2,1.3,1.9,3.2,1.9,5.7v12.8h-4.6V65c0-1.6-0.4-2.8-1.1-3.7c-0.7-0.9-1.7-1.3-3-1.3c-1.3,0-2.3,0.4-3.1,1.3
		c-0.8,0.9-1.2,2.1-1.2,3.7v11.4h-4.6V64.9c0-1.6-0.4-2.8-1.1-3.6c-0.7-0.9-1.7-1.3-3-1.3c-1.3,0-2.3,0.5-3.1,1.4
		c-0.8,0.9-1.2,2.1-1.2,3.7v11.3H336.1z M311.1,66.4c0,1.8,0.6,3.3,1.8,4.6c1.2,1.3,2.6,1.9,4.4,1.9c1.8,0,3.3-0.6,4.4-1.9
		c1.1-1.3,1.7-2.8,1.7-4.6c0-1.8-0.6-3.3-1.7-4.6c-1.2-1.3-2.6-1.9-4.4-1.9c-1.8,0-3.3,0.6-4.4,1.9C311.7,63,311.1,64.5,311.1,66.4z
		 M306.5,66.4c0-1.9,0.5-3.6,1.4-5.2c0.9-1.6,2.2-2.9,3.9-3.8c1.7-0.9,3.5-1.4,5.5-1.4c2,0,3.9,0.5,5.5,1.4c1.6,0.9,2.9,2.2,3.8,3.8
		c0.9,1.6,1.4,3.4,1.4,5.3c0,1.4-0.3,2.8-0.8,4.1c-0.5,1.3-1.3,2.4-2.2,3.4c-0.9,0.9-2.1,1.7-3.4,2.3c-1.3,0.6-2.8,0.8-4.3,0.8
		c-2,0-3.8-0.5-5.5-1.4c-1.6-0.9-2.9-2.2-3.8-3.8C307,70,306.5,68.3,306.5,66.4z M293.6,76.4V56.3h4.6v20.1H293.6z M293.4,53.2v-4.3
		h4.9v4.3H293.4z M268.8,66.4c0,1.9,0.6,3.4,1.7,4.6c1.1,1.2,2.5,1.8,4.1,1.8c1.6,0,3-0.6,4.1-1.8c1.1-1.2,1.7-2.8,1.7-4.7
		c0-1.9-0.6-3.4-1.7-4.6c-1.1-1.2-2.5-1.8-4.1-1.8c-1.6,0-3,0.6-4.1,1.8C269.4,62.9,268.8,64.5,268.8,66.4z M264.3,76.4V48.6h4.6v11
		c1.8-2.5,4.1-3.8,6.8-3.8c1.2,0,2.4,0.2,3.5,0.7c1.1,0.5,2.1,1.1,3,2c0.9,0.9,1.6,2,2.1,3.3c0.5,1.4,0.8,2.8,0.8,4.5
		c0,1.6-0.3,3.1-0.8,4.4c-0.5,1.3-1.2,2.4-2.1,3.3c-0.9,0.9-1.9,1.5-3,2c-1.1,0.5-2.3,0.7-3.5,0.7c-2.8,0-5-1.2-6.8-3.5v3.1H264.3z
		 M239.4,66.4c0,1.8,0.6,3.3,1.8,4.6c1.2,1.3,2.6,1.9,4.4,1.9c1.8,0,3.3-0.6,4.4-1.9c1.1-1.3,1.7-2.8,1.7-4.6c0-1.8-0.6-3.3-1.7-4.6
		c-1.2-1.3-2.6-1.9-4.4-1.9c-1.8,0-3.3,0.6-4.4,1.9C239.9,63,239.4,64.5,239.4,66.4z M234.7,66.4c0-1.9,0.5-3.6,1.4-5.2
		c0.9-1.6,2.2-2.9,3.9-3.8c1.7-0.9,3.5-1.4,5.5-1.4c2,0,3.9,0.5,5.5,1.4c1.6,0.9,2.9,2.2,3.8,3.8c0.9,1.6,1.4,3.4,1.4,5.3
		c0,1.4-0.3,2.8-0.8,4.1c-0.5,1.3-1.3,2.4-2.2,3.4c-0.9,0.9-2.1,1.7-3.4,2.3c-1.3,0.6-2.8,0.8-4.3,0.8c-2,0-3.8-0.5-5.5-1.4
		c-1.6-0.9-2.9-2.2-3.8-3.8C235.2,70,234.7,68.3,234.7,66.4z M217.4,76.4V56.3h4.6v4.5c0.7-1.6,1.6-2.8,2.8-3.7
		c1.1-0.8,2.4-1.2,4-1.2c0.1,0,0.3,0,0.4,0v4.9h-0.3c-2.1,0-3.7,0.7-5,2c-1.2,1.4-1.9,3.3-1.9,5.9v7.7H217.4z M191.1,66.4
		c0-1.9,0.4-3.6,1.3-5.2c0.9-1.6,2.1-2.9,3.7-3.8c1.6-1,3.4-1.4,5.4-1.4c1.8,0,3.3,0.3,4.6,0.9c1.3,0.6,2.4,1.4,3.4,2.5l-2.9,3.1
		c-0.8-0.8-1.6-1.4-2.4-1.9c-0.8-0.4-1.8-0.6-2.8-0.6c-1.7,0-3,0.6-4.1,1.9c-1.1,1.3-1.6,2.8-1.6,4.6c0,1.8,0.6,3.4,1.7,4.6
		c1.1,1.3,2.6,1.9,4.3,1.9c1,0,1.9-0.2,2.8-0.7c0.8-0.4,1.6-1.1,2.4-1.9l2.8,2.8c-1.1,1.2-2.3,2.2-3.6,2.8c-1.3,0.6-2.8,1-4.7,1
		c-2,0-3.7-0.5-5.3-1.4c-1.6-0.9-2.8-2.2-3.7-3.8C191.5,70,191.1,68.3,191.1,66.4z M178.1,76.4V56.3h4.6v20.1H178.1z M178,53.2v-4.3
		h4.9v4.3H178z M141.9,76.4V49.7h5l8.1,12.6l8.1-12.6h5v26.7h-4.7V57.3L155,69.9h-0.1l-8.4-12.5v19.1H141.9z"/>
	<g>
		<path class="st1" d="M48.9,6.7c-6.1,4.6-9.8,18.1-19.5,10.8c-0.8-0.6-1.3-1-1.6-1.2c-0.3-0.2-0.8-0.2-1,0c0,0,0,0,0,0
			c-0.2,0.2-0.2,0.7,0,0.9c1.2,2.4,6.6,8.5,13.8,2.2c2.5-2.1,8.2-7.6,9.9-12.2C51,5.8,50,5.9,48.9,6.7"/>
		<path class="st1" d="M59.5,5.3c-8.9,4.6-17.1,25.3-28,22.2c-1.9-0.5-3.6-2.1-4.9-3.4c-2.1-2.1-1.9-2.8-3.5-3.4
			c-1.1-0.4-2,0-1.6,1.3c2.5,5.6,11.3,11.7,19.5,5.4c6.6-5.1,8.6-9.5,13.9-14.6c1.3-1.2,1.9-2,3.2-3.2c1-1,2.4-1.6,2.7-3
			c0-0.1,0-0.2,0-0.2C61,5.5,60.1,4.9,59.5,5.3"/>
		<path class="st1" d="M21.7,32.7c11,11.3,15.7,5.9,24.4-2c8.2-7.5,15.7-17.5,30.1-21.3c1.1-0.3,0.5-2.1-1-1.9
			c-6.5,1.4-14.1,6-19,10.2C43.8,28.4,37.8,44.2,23.5,30.9c-3.7-3.4-4-4.5-5.4-5.3c-0.9-0.5-1.4,0.2-1.5,1c0,0.4,0.1,0.8,0.3,1
			c0.3,0.2,0.8,0.6,1.7,1.7C19.8,30.6,20.5,31.4,21.7,32.7"/>
		<path class="st1" d="M13,31.3c1.8,5.2,10,12.3,13.8,14.6C41,54.9,57.5,17.7,91.3,17.4c0.6,0,1.2,0,2-0.5c0.8-0.6,0.9-1.3-0.2-1.3
			c-2.2,0.2-3.9,0-5.8,0.2C62.5,18.7,61.1,23.1,39,42.9c-10.9,9.8-18.7-8.4-24.7-12.6C13.5,29.7,12.8,30.4,13,31.3"/>
		<path class="st1" d="M9.8,36.4c0.4,2.6,5.4,8.4,6.5,9.8c8.2,9.7,14.1,14.8,26.4,5c23.9-19,24.6-21.1,59.1-23.9
			c1-0.1,1-0.9,0.3-1.4c-0.5-0.3-3-0.4-3.6-0.4c-12.2-0.5-25.9,2.9-35,7.8c-4.9,2.6-10.2,6.4-13.7,9.3c-17,13.8-25,19.1-37.5-6.8
			C11.8,34.9,10,34.8,9.8,36.4"/>
		<path class="st1" d="M6.9,40.9c4.3,9.5,8.6,15.1,15.5,21.3c9.3,8.3,20-1.6,26.5-6.5c16.5-12.4,20.6-15.4,42.8-17.1
			c1.3-0.1,14.7-2.1,17.1-2.5c1.3-0.3,2.1-3,0.3-2.9c-3.1,0.1-7.5,1.5-10.8,1.9c-38.8,4.4-28.2,3.7-57.3,23.7
			c-15.5,10.6-23.8-3-30.3-16c-0.7-1.3-0.9-3.7-2.7-3.4C7,39.5,6.7,40.1,6.9,40.9"/>
		<path class="st1" d="M111.5,42.8c-26.7,8.9-30.8-1-59.9,17.5c-14.4,9.1-24.8,23.5-42-9.1l-3.5-5.4c-0.2-0.3-0.8-0.1-0.9,0.3
			c-1.1,5.5,11.4,20.1,16.4,24.4c10.5,8.9,21.2-1.4,29-6.7C79.2,44.5,88,52.7,108.7,46.5c4-1.2,4.9-1.5,5.8-2.6
			c0.7-1,0.3-1.8-0.8-1.7C113.2,42.3,112.5,42.5,111.5,42.8"/>
		<path class="st1" d="M110.4,53.7c-8.8,3.7-18.3,3.6-27.6,4.7c-33.5,4-46.6,31.7-60.4,19.4c-7.7-6.8-11.9-14-17-25.6
			c-0.3-0.6-2.9-0.2-1.8,1.9c4.7,9.2,9.8,20.5,18.2,26.3c12.8,8.8,23.8-5.2,34.4-10.3c11.9-5.2,14.7-8.1,30.3-9.7
			c8.4-0.8,25.2-1.7,30.7-7.4c0.7-0.8-0.1-1.4-0.9-1.4C114.4,51.5,112.7,52.8,110.4,53.7"/>
		<path class="st1" d="M117.3,61.7c-3.8,0.7-10.3,3.9-14.6,4.6c-6.7,1.2-13,1.3-19.7,2.4c-35.7,5.6-46.2,29.4-63.5,16.6
			c-4.8-3.6-13.1-17-15.1-26.6c-0.2-1-2.1-0.6-1.8,0.7c0.1,0.4,0.2,0.8,0.2,1.3c1.6,11,11,23,17.2,27.6
			C35.5,100,50.8,75.6,85.2,70.8c5.3-0.7,28.6-2.2,33.3-8C119.3,61.7,118.2,61.5,117.3,61.7"/>
		<path class="st1" d="M116.2,72.7c-18.8,9.5-26.6-1.3-66.2,17.4c-8.8,4.2-20.1,12-29.9,5.5C13.9,91.4,7.4,81.3,4.9,71.9
			c-0.3-1.3-2.6-0.1-2.1,1.2c3.7,9.7,8.4,20.2,18,25.6c9.6,5.4,20.5-1.9,31-6.8c38.4-18,49.6-7.6,64.9-16.6c0.7-0.4,2.4-1.1,1.8-2.2
			c-0.3-0.6-0.8-0.8-1.3-0.7C116.6,72.3,116.7,72.4,116.2,72.7"/>
		<path class="st1" d="M109.4,86c-5.8,1.7-13.4,2.1-19.4,2.7c-32.8,3.3-47.3,17.6-61,18.7c-2.9,0.2-3.9,0.3-4.4,0.4
			c-0.6,0.1-0.6,1.2-0.1,1.4c7.8,3.1,34.1-10.6,42.2-13.4c8-2.8,15.4-3.8,24.7-4.8c6.3-0.6,17.3-0.8,22.4-4.2
			c0.8-0.5,0.3-1.7-0.6-1.7C112.7,85.1,111.6,85.3,109.4,86"/>
		<path class="st1" d="M101.2,98.2c-9.1,0.8-26.1,2.2-33.8,4.3c-9.1,2.5-15.8,6.5-23.8,9.7c-3.9,1.6-5.3,1.9-6,2.2
			c-0.8,0.4-1.2,2,0.1,2.4c1.5,0.2,2.8-0.6,6.9-2.3c2.9-1.2,5-2.3,7.8-3.4c21.5-8.5,21.1-7.8,45-10c2.1-0.2,6-0.4,7.8-1
			c1.4-0.5,1.4-1.7,0.3-1.9C104.9,97.9,103.8,97.9,101.2,98.2"/>
		<path class="st1" d="M70.7,112.8c-6.6,1.7-12.7,4.6-19.4,5.8c-1.6,0.3-0.9,2.5,0.4,2.3c11.1-2.2,16.6-7.3,37.3-8.4
			c3.3-0.3,3.6-0.1,4.6-0.8c0.5-0.4,0.3-1.1-0.2-1.4c-0.3-0.2-0.7-0.3-1.3-0.3C88.4,109.5,74.8,111.7,70.7,112.8"/>
		<path class="st1" d="M82.3,117.5c2.9-1.1,5.8-2.5,8.5-4c18.3-10.5,30.7-30.2,30.7-52.8c0-22.6-12.4-42.3-30.7-52.7
			c-2.7-1.5-5.5-2.9-8.5-4c-6.7-2.6-14-4-21.6-4c-7.6,0-14.9,1.4-21.6,4c-2.9,1.1-5.8,2.5-8.5,4C12.4,18.5,0,38.2,0,60.7
			c0,22.6,12.4,42.3,30.7,52.8c2.7,1.5,5.5,2.9,8.5,4c6.7,2.6,14,4,21.6,4C68.3,121.5,75.6,120.1,82.3,117.5 M60.7,9.2
			c6,0,11.8,1,17.2,2.9c-2.4,2.8-5.6,5.5-9.1,8.1c-2.5,1.9-5.3,3.8-8,5.7c-2.6-1.8-5.2-3.5-7.6-5.3c-3.7-2.8-7.1-5.6-9.6-8.4
			C49,10.2,54.7,9.2,60.7,9.2z M9.2,60.7c0-19,10.4-35.7,25.8-44.6c2.7,3.6,6.3,6.9,10.3,10c2.3,1.8,4.8,3.6,7.3,5.3
			c-2.7,1.9-5.3,3.8-7.8,5.7c-8.5,6.7-15,14.2-15,23.6c0,9.4,6.5,17,15.1,23.8c2.6-1.9,6-3.2,8.6-5C45.7,73.7,39,67.2,39,60.8
			c0-6.4,6-12.3,13.7-18.1c2.5-1.9,5.3-3.8,8-5.7c0.8-0.6,1.7-1.1,2.5-1.7c1.9-1.3,3.8-2.6,5.7-3.8c2.7-1.9,5.3-3.8,7.8-5.7
			c3.8-3,7.2-6.2,9.8-9.6c15.4,8.9,25.8,25.6,25.8,44.6c0,19.1-10.4,35.8-25.9,44.7c-2.6-3.3-6-6.5-9.7-9.4c-2.5-2-5.1-3.9-7.8-5.7
			c12-8.4,22.8-17.4,22.8-29.5c0-9.4-5.9-16.4-14.4-23.1c-0.5,0.3-1.5,0.2-2,0.5c-0.4,0.3-0.8,0.6-1.2,0.8c-1.8,1.2-3.6,2.4-5.4,3.6
			c7.7,5.8,13.7,11.7,13.7,18.1c0,8.5-10.6,16.4-21.8,24c-0.9,0.6-1.8,1.3-2.8,1.9c-1.8,1.2-3.6,2.4-5.4,3.7
			c-6.8,4.7-13.2,9.6-17.5,15.2C19.6,96.5,9.2,79.8,9.2,60.7z M60.7,95.8c2.7,1.9,5.5,3.8,8,5.7c3.5,2.6,6.6,5.2,9,7.9
			c-5.3,1.9-11,2.9-17,2.9c-6,0-11.7-1-17-2.9C47.9,104.8,54.3,100.3,60.7,95.8z"/>
	</g>
</g>
</svg>
