<?xml version="1.0" encoding="utf-8"?>
<!-- Generator: Adobe Illustrator 24.2.1, SVG Export Plug-In . SVG Version: 6.00 Build 0)  -->
<svg version="1.1" id="Layer_1" xmlns="http://www.w3.org/2000/svg" xmlns:xlink="http://www.w3.org/1999/xlink" x="0px" y="0px"
	 viewBox="0 0 512 512" style="enable-background:new 0 0 512 512;" xml:space="preserve">
<style type="text/css">
	.st0{fill:#4C8641;}
</style>
<path d="M512,68.4h-98.3l-29.8,29.6h-36.3L330.5,81H181.5l-17.1,17.1h-36.3L98.3,68.4H0v94.6l37.6,37.6c-0.3,1.9-0.4,3.8-0.4,5.7
	c0,22.6,18.4,40.9,40.9,40.9c22.6,0,40.9-18.4,40.9-40.9s-18.4-40.9-40.9-40.9c-1.6,0-3.2,0.1-4.7,0.3L50,142.3v-23.9h27.7
	l29.8,29.6h56.6l50.8,58.4l15.2,153.3c-9.5,7.7-15.1,19.3-15.1,31.7c0,13.5,6.6,25.9,17.5,33.5v55.6h46.9V425
	c10.9-7.6,17.4-20.1,17.4-33.5c0-12.4-5.6-24-15.1-31.7l15.3-153.3l50.8-58.4h56.6l29.8-29.6H462v23.9l-23.4,23.4
	c-1.6-0.2-3.1-0.3-4.7-0.3c-22.6,0-40.9,18.4-40.9,40.9c0,22.6,18.4,40.9,40.9,40.9c22.6,0,40.9-18.4,40.9-40.9
	c0-1.9-0.1-3.9-0.4-5.7l37.6-37.6V68.4z M104.1,206.4c0,14.3-11.6,25.9-25.9,25.9c-14.3,0-25.9-11.6-25.9-25.9s11.6-25.9,25.9-25.9
	C92.4,180.5,104.1,192.1,104.1,206.4z M433.8,232.3c-14.3,0-25.9-11.6-25.9-25.9c0-14.3,11.6-25.9,25.9-25.9s25.9,11.6,25.9,25.9
	S448.1,232.3,433.8,232.3z M497,156.8l-28.3,28.2c-3.5-5.8-8.4-10.6-14.3-14l22.5-22.5v-45.1h-48.9l-29.8,29.6h-57.2l-58.5,67.1
	l-16.6,167l3.9,2.5c7.5,4.8,12,13,12,21.9c0,9.5-5.2,18.2-13.5,22.8l-3.9,2.1v49.2h-16.9v-49.2l-3.9-2.1
	c-8.4-4.6-13.5-13.3-13.5-22.8c0-8.9,4.5-17.1,12-21.9l3.9-2.5l-16.6-167l-58.5-67.1h-57.2l-29.8-29.6H35v45.1l22.5,22.5
	c-5.8,3.4-10.8,8.2-14.3,14L15,156.8V83.4h77.1l29.8,29.6h48.6L187.7,96h136.6l17.1,17.1H390l29.8-29.6H497V156.8z"/>
<path d="M154.2,58.8L167,46h178l12.8,12.8l0.7,27l15-0.4l-0.8-33L351.2,31H160.8l-21.4,21.4l-0.8,33l15,0.4L154.2,58.8z"/>
<path d="M180.1,428.7v-37.2c0-14.8,4.3-29.1,12.3-41.5l1.4-2.2l-12.5-125.3l-22.5-64.4l-14.2,5l21.9,62.7l11.8,118.4
	c-8.7,14.3-13.3,30.6-13.3,47.4v43.4l45.7,45.7h9.3v-15h-3L180.1,428.7z"/>
<path d="M367.3,163.1l-14.2-5l-22.5,64.4l-12.5,125.3l1.4,2.2c8,12.3,12.3,26.7,12.3,41.5v37.2L295,465.6h-3v15h9.3l45.7-45.7v-43.4
	c0-16.8-4.6-33.1-13.3-47.4l11.8-118.4L367.3,163.1z"/>
<path d="M433.8,225.6c-4.9,0-9.8-1.9-13.6-5.6l10.6-10.6c1.6,1.6,4.3,1.6,5.9,0c1.6-1.6,1.6-4.3,0-5.9l10.6-10.6
	c7.5,7.5,7.5,19.6,0,27.1C443.7,223.7,438.7,225.6,433.8,225.6z"/>
<path d="M78,225.6c-4.9,0-9.8-1.9-13.6-5.6L75,209.4c1.6,1.6,4.3,1.6,5.9,0c1.6-1.6,1.6-4.3,0-5.9l10.6-10.6
	c7.5,7.5,7.5,19.6,0,27.1C87.8,223.7,82.9,225.6,78,225.6z"/>
<path class="st0" d="M267.1,255.7l-14.9-1.5l6.4-64.4l11.4-13l11.3,9.9L273,196L267.1,255.7z M287.8,179.1l-11.3-9.9l9.9-11.3
	l11.3,9.9L287.8,179.1z M304.2,160.2l-11.3-9.9l9.9-11.3l11.3,9.9L304.2,160.2z"/>
<path class="st0" d="M317.1,121H276v-15h41.1V121z M266,121h-15v-15h15V121z M241,121h-15v-15h15V121z"/>
<path class="st0" d="M307.5,353.9l-14.9-1.5l8.9-89.7l14.9,1.5L307.5,353.9z M317.4,254.3l-14.9-1.5l1.5-14.9l14.9,1.5L317.4,254.3z
	 M319.9,229.4l-14.9-1.5l1.5-14.9l14.9,1.5L319.9,229.4z"/>
<path class="st0" d="M337.8,71H224.2V56h113.6L337.8,71L337.8,71z M214.2,71h-15V56h15V71z M189.2,71h-15V56h15V71z"/>
</svg>
