<?xml version="1.0" encoding="utf-8"?>
<!-- Generator: Adobe Illustrator 24.2.1, SVG Export Plug-In . SVG Version: 6.00 Build 0)  -->
<svg version="1.1" id="Capa_1" xmlns="http://www.w3.org/2000/svg" xmlns:xlink="http://www.w3.org/1999/xlink" x="0px" y="0px"
	 viewBox="0 0 512 512" style="enable-background:new 0 0 512 512;" xml:space="preserve">
<style type="text/css">
	.st0{fill:#4C8641;}
</style>
<g>
	<path class="st0" d="M88.5,103.8v13.1H54.7v-13.1H88.5z"/>
	<path class="st0" d="M135,74.6c0,11.1-9.2,19.1-19.7,19.1c-11.4,0-19.5-8.4-19.5-18.7c-0.1-10.7,8.7-19.2,19.7-19.2
		C127.1,55.8,135,64.3,135,74.6z M106.2,74.8c0,5.5,4,9.8,9.3,9.8c5.2,0,9.2-4.3,9.2-9.9c0-5.1-3.2-9.9-9.2-9.9
		C109.8,64.7,106.2,69.5,106.2,74.8z"/>
	<path class="st0" d="M210.5,141.6c-3.6,1.8-11.7,3.7-22.3,3.7c-30.1,0-45.5-18.7-45.5-43.4c0-29.7,21.2-46.2,47.4-46.2
		c10.2,0,17.9,2.1,21.4,3.8l-4,15.5c-4-1.6-9.5-3.2-16.5-3.2c-15.5,0-27.8,9.3-27.8,28.7c0,17.5,10.3,28.3,27.9,28.3
		c5.9,0,12.5-1.2,16.4-2.9L210.5,141.6z"/>
</g>
<rect x="50.9" y="170" width="17.2" height="342"/>
<rect x="307.7" y="170" width="19.9" height="19.9"/>
<rect x="268.1" y="170" width="19.9" height="19.9"/>
<rect x="163.1" y="344.3" class="st0" width="17.5" height="17.5"/>
<path d="M421.4,224v-16h-16v16h-16v16h16v16h16v-16h16v-16H421.4z"/>
<path d="M389.4,288h48v16h-48V288z"/>
<path d="M389.4,320h48v16h-48V320z"/>
<path d="M389.4,352h48v16h-48V352z"/>
<path class="st0" d="M393.9,427.2h-12c0,23.2,18.9,42.1,42.1,42.1v-12C407.4,457.3,393.9,443.8,393.9,427.2z"/>
<path d="M477.4,0h-8h-112h-8h-8H20H10H0v10v10v477.9v4.1v10h10h15.6h294.5h3.7H340v-20l0,0V325c0-57.9-47.1-105-105-105
	c-57.9,0-105,47.1-105,105v167H20V190.3h228.3V170H20v0V20h321.4v92v8v8h8h8v312c0,30.9,25.1,56,56,56s56-25.1,56-56V128h8h8v-8v-8
	V16V8V0H477.4z M150,325c0-46.9,38.1-85,85-85s85,38.1,85,85v167H150V325z M421.4,16h16v96h-16V16z M389.4,16h16v96h-16V16z
	 M357.4,16h16v96h-16V16z M453.4,440c0,22.1-17.9,40-40,40s-40-17.9-40-40v-24h80V440z M453.4,400h-80V192h80V400z M453.4,176h-80
	v-48h80V176z M469.4,112h-16V16h16V112z"/>
<path class="st0" d="M235,256.1c-39.6,0-71.9,32.2-71.9,71.9v2h17.3v-2c0-30.1,24.5-54.6,54.6-54.6c30.1,0,54.6,24.5,54.6,54.6v2
	h17.3v-2C306.9,288.4,274.6,256.1,235,256.1z"/>
</svg>
