<?xml version="1.0" encoding="utf-8"?>
<!-- Generator: Adobe Illustrator 24.2.1, SVG Export Plug-In . SVG Version: 6.00 Build 0)  -->
<svg version="1.1" id="Capa_1" xmlns="http://www.w3.org/2000/svg" xmlns:xlink="http://www.w3.org/1999/xlink" x="0px" y="0px"
	 viewBox="0 0 512 512" style="enable-background:new 0 0 512 512;" xml:space="preserve">
<style type="text/css">
	.st0{fill:#4C8641;}
</style>
<g>
	<g>
		<path d="M290.4,432l-109-168.5V128c0-5.9-4.8-10.7-10.7-10.7h-53.3c-5.9,0-10.7,4.8-10.7,10.7v135.8l-99.4,169
			C2.5,440.8,0,450,0,459.4c0,29,23.5,52.6,52.6,52.6h194.2c10,0,19.8-2.9,28.1-8.3C299,488.1,305.9,456,290.4,432z M246.8,490.7
			H52.6c-5.6,0-11.1-1.5-15.9-4.3c-14.9-8.8-19.8-27.9-11.1-42.8l100.9-171.5c1-1.6,1.5-3.5,1.5-5.4v-128h32v128
			c0,2.1,0.6,4.1,1.7,5.8l110.7,171.1c3.2,4.9,4.9,10.7,4.9,16.6C277.3,477,263.7,490.7,246.8,490.7z"/>
	</g>
</g>
<g>
	<g>
		<path class="st0" d="M153.7,310.1l-18.4-10.8l-90.6,154c-1,1.6-1.5,3.5-1.5,5.4c0,5.9,4.8,10.7,10.7,10.7H128V448H72.5
			L153.7,310.1z"/>
	</g>
</g>
<g>
	<g>
		<path d="M486.3,245.3H320c-23.6,0-42.7,19.1-42.7,42.7v170.7c0,29.4,23.9,53.3,53.3,53.3h96c29.4,0,53.3-23.9,53.3-53.3V313.7
			l24.5-24.5c4.8-4.8,7.5-11.4,7.5-18.2C512,256.9,500.5,245.3,486.3,245.3z M489.4,274.2l-27.6,27.6c-2,2-3.1,4.7-3.1,7.5v149.3
			c0,17.7-14.3,32-32,32h-96c-17.7,0-32-14.3-32-32V288c0-11.8,9.6-21.3,21.3-21.3h166.3c1.2,0,2.3,0.5,3.1,1.3
			C491.1,269.7,491.1,272.5,489.4,274.2z"/>
	</g>
</g>
<g>
	<g>
		<path class="st0" d="M411.1,309.3V448h-32v21.3h42.7c5.9,0,10.7-4.8,10.7-10.7V309.3H411.1z"/>
	</g>
</g>
<g>
	<g>
		<path d="M47.3,85.3C26.7,85.3,10,102,10,122.7c0,20.6,16.7,37.3,37.3,37.3s37.3-16.7,37.3-37.3C84.7,102,68,85.3,47.3,85.3z
			 M47.3,138.7c-8.8,0-16-7.2-16-16s7.2-16,16-16s16,7.2,16,16S56.2,138.7,47.3,138.7z"/>
	</g>
</g>
<g>
	<g>
		<path d="M95.3,10.7c-17.7,0-32,14.3-32,32s14.3,32,32,32s32-14.3,32-32S113,10.7,95.3,10.7z M95.3,53.3c-5.9,0-10.7-4.8-10.7-10.7
			c0-5.9,4.8-10.7,10.7-10.7S106,36.8,106,42.7S101.2,53.3,95.3,53.3z"/>
	</g>
</g>
<g>
	<g>
		<rect x="315.1" y="309.3" class="st0" width="32" height="21.3"/>
	</g>
</g>
<g>
	<g>
		<rect x="315.1" y="352" class="st0" width="21.3" height="21.3"/>
	</g>
</g>
<g>
	<g>
		<rect x="315.1" y="394.7" class="st0" width="32" height="21.3"/>
	</g>
</g>
<g>
	<g>
		<rect x="315.1" y="437.3" class="st0" width="21.3" height="21.3"/>
	</g>
</g>
<g>
	<g>
		<rect x="21.3" y="192" width="21.3" height="21.3"/>
	</g>
</g>
<g>
	<g>
		<rect x="53.3" y="245.3" width="21.3" height="21.3"/>
	</g>
</g>
<g>
	<g>
		<rect x="234.7" y="288" width="21.3" height="21.3"/>
	</g>
</g>
<g>
	<g>
		<rect x="213.3" y="245.3" width="21.3" height="21.3"/>
	</g>
</g>
<g>
	<g>
		<rect x="202.7" y="202.7" width="21.3" height="21.3"/>
	</g>
</g>
<g>
	<g>
		<rect x="213.3" y="437.3" class="st0" width="21.3" height="21.3"/>
	</g>
</g>
<g>
	<g>
		<rect x="181.3" y="394.7" class="st0" width="21.3" height="21.3"/>
	</g>
</g>
<rect x="277.3" y="276.5" width="21.4" height="23.3"/>
<path d="M431.4,93.7V60.6c0-15.2-12.4-27.6-27.6-27.6h-98.8c-15.2,0-27.6,12.4-27.6,27.6v5.3h-76.5h-22.3h-21.8
	c-15.2,0-27.6,12.4-27.6,27.6v44.1h22.3V93.5c0-2.9,2.4-5.3,5.3-5.3h120.6V283l22.3-4.3V88.2h21.8c2.9,0,5.3,2.4,5.3,5.3v167h22.3
	v-167c0-15.2-12.4-27.6-27.6-27.6h-21.8v-5.3c0-2.9,2.4-5.3,5.3-5.3h98.8c2.9,0,5.3,2.4,5.3,5.3v31.3c-13.4,3.8-23.3,16.1-23.3,30.8
	c0,17.7,14.3,32,32,32c17.7,0,32-14.3,32-32C449.7,109.9,442.2,98.8,431.4,93.7z M417.7,133.3c-5.9,0-10.7-4.8-10.7-10.7
	s4.8-10.7,10.7-10.7s10.7,4.8,10.7,10.7S423.6,133.3,417.7,133.3z"/>
<rect x="277.3" y="245.4" width="79.3" height="21.2"/>
</svg>
