<?xml version="1.0" encoding="utf-8"?>
<!-- Generator: Adobe Illustrator 24.2.1, SVG Export Plug-In . SVG Version: 6.00 Build 0)  -->
<svg version="1.1" id="Layer_1" xmlns="http://www.w3.org/2000/svg" xmlns:xlink="http://www.w3.org/1999/xlink" x="0px" y="0px"
	 viewBox="0 0 512 512" style="enable-background:new 0 0 512 512;" xml:space="preserve">
<style type="text/css">
	.st0{fill:#4C8641;}
</style>
<path class="st0" d="M138.2,249.2c-4.5,4.8-6.8,11.2-6.4,17.7l0.3,3.9l16-1l-0.3-4c-0.2-3.1,1.5-6,4.3-7.4
	c6.2,2.9,12.8,4.7,19.6,5.3c1.7,2.6,1.7,5.9,0,8.5l-2.2,3.3l13.3,8.9l2.2-3.3c3.6-5.4,4.8-12.2,3.3-18.5c4.1-0.9,8-2.3,11.8-4.1
	c2.8,1.4,4.4,4.3,4.2,7.4l-0.3,3.9l16,1l0.3-3.9c0.4-6.5-1.9-12.9-6.4-17.7c1.2-1.1,2.3-2.2,3.4-3.4c4.4,4.1,10.1,6.4,16.2,6.4
	c0.5,0,1,0,1.6,0l3.9-0.3l-1-16l-4,0.3c-3.1,0.2-6-1.4-7.4-4.2c3-6.2,4.8-12.8,5.3-19.7c2.6-1.7,5.9-1.6,8.4,0.1l3.3,2.2l8.9-13.3
	l-3.3-2.2c-8-5.3-18.3-5.3-26.3,0l-3.3,2.2c-2.2,1.5-3.6,4-3.6,6.7c0,22.1-17.9,40-40,40s-40-17.9-40-40c0-22.1,17.9-40,40-40
	c14.3,0,27.5,7.6,34.6,20c2.2,3.8,7.1,5.1,10.9,2.9c1.4-0.8,2.5-2,3.2-3.4l1.8-3.5c1.4-2.8,4.3-4.5,7.4-4.3l3.9,0.3l1-16l-3.9-0.3
	c-6.5-0.4-12.9,1.9-17.7,6.3c-2.7-2.9-5.7-5.5-8.9-7.8l0.1-1.9c0.2-3.3,2.5-6.1,5.7-7l-3.7-15.6c-0.1,0-0.3,0.1-0.4,0.1
	c-8.2,2.2-14.6,8.6-16.7,16.8c-4.1-1.3-8.4-2.2-12.8-2.5c-1.7-2.6-1.7-5.9,0-8.5l2.2-3.3l-13.3-8.9l-2.2,3.3
	c-3.6,5.4-4.8,12.1-3.3,18.5c-4.1,0.9-8.1,2.3-11.8,4.2c-2.8-1.4-4.5-4.3-4.2-7.4l0.3-3.9l-16-1l-0.3,3.9c-0.4,6.5,1.9,13,6.4,17.7
	c-1.2,1.1-2.3,2.2-3.4,3.4c-4.8-4.5-11.2-6.8-17.7-6.4l-3.9,0.3l1,16l4-0.3c3.1-0.2,6,1.5,7.4,4.2c-1.9,3.9-3.3,8-4.2,12.3
	c-8.2-2.2-16.9,0.1-22.9,6.1l11.3,11.3c2.3-2.3,5.9-2.9,8.9-1.4l1.7,0.9c0.4,4.1,1.2,8.2,2.5,12.1c-8.2,2.2-14.6,8.5-16.8,16.7
	l15.3,4.6c0-0.1,0.1-0.3,0.1-0.4c0.9-3.2,3.7-5.5,7-5.7l2-0.2C132.6,243.5,135.3,246.5,138.2,249.2z"/>
<path class="st0" d="M168,200h-16c0,17.7,14.3,32,32,32v-16C175.2,216,168,208.8,168,200z"/>
<circle class="st0" cx="192" cy="200" r="8"/>
<path class="st0" d="M278.9,204.1C278.9,204.1,278.9,204.1,278.9,204.1c9.3-15.6,10.3-34.8,2.7-51.2l-14.7,6.4
	c0.1,0.1,0.1,0.2,0.2,0.4c5.4,11.6,4.7,25.2-1.9,36.3L278.9,204.1z"/>
<circle class="st0" cx="104" cy="136" r="8"/>
<circle class="st0" cx="256" cy="128" r="8"/>
<path class="st0" d="M176,113.7c6.2,0,12.1-2.4,16.5-6.8c2.9-2.8,7.5-2.8,10.3,0c0.3,0.3,0.6,0.7,0.9,1.1l13.3-8.9
	c-7.1-10.7-21.6-13.6-32.3-6.5c-1.3,0.8-2.5,1.8-3.5,2.9c-2.9,2.8-7.5,2.8-10.3,0l-11.5,11.1c0.1,0.1,0.1,0.1,0.2,0.2
	C163.9,111.2,169.8,113.7,176,113.7z"/>
<polygon class="st0" points="400,72 488,72 488,56 400,56 400,40 488,40 488,24 400,24 392,24 384,24 384,32 384,64 384,72 392,72 
	"/>
<rect x="456" y="152" class="st0" width="32" height="16"/>
<rect x="408" y="184" class="st0" width="80" height="16"/>
<path d="M434.9,355.7l-11.5,11.1c0.1,0.1,0.1,0.1,0.2,0.2l32.4,32.4L399.4,456l-11.3-11.3l41-41l-11.3-11.3l-41,41l-39.6-39.6
	c-8-8.1-9.3-20.6-3.1-30.1c0.9-1.4,1.9-2.6,3.1-3.8l22.6-22.6c9.5-9.1,24.4-9.1,33.9,0l7.2,7.2l11.5-11.1c-0.1-0.1-0.1-0.1-0.2-0.2
	l-7.2-7.2c-11.2-11.3-28.1-14.8-42.9-8.9l-39-39c7.9-11.8,14.3-24.5,19-38H488v-16H347c12.9-51.2,0.7-105.5-32.9-146.3l-12.6,9.9
	c0.1,0.1,0.1,0.2,0.2,0.2c31.2,38,42,88.8,28.8,136.2H314c22.1-71.8-18.2-147.9-89.9-170S76.1,72.2,54,143.9c-4,13-6,26.5-6,40.1
	c-0.1,32,11.3,63.1,32,87.5v23.1C18.9,237.1,15.9,141,73.4,79.9c54.7-58.1,145-64,206.8-13.5l10.3-12.2c-0.1-0.1-0.1-0.1-0.2-0.2
	C218.6-4.8,112.8,5.6,54,77.3S5.7,254.8,77.4,313.6c0.9,0.7,1.7,1.4,2.6,2.1v36.8c-39.5,4.4-68,40-63.6,79.6
	c4.4,39.5,40,68,79.6,63.6c39.5-4.4,68-40,63.6-79.6c-3.7-33.4-30.1-59.8-63.6-63.6v-25.6c56.1,34.8,127.3,33.4,182-3.7l39,39
	c-5.8,14.8-2.3,31.6,8.9,42.9l79.2,79.2c15.6,15.6,40.9,15.6,56.6,0l22.6-22.6c15.6-15.6,15.6-40.9,0-56.6L434.9,355.7z M96,479.4
	V432h47.4C139.8,456.5,120.5,475.8,96,479.4z M143.4,416H88c-4.4,0-8,3.6-8,8v55.4C49.4,475,28.2,446.6,32.6,416
	c3.5-24.6,22.8-43.9,47.4-47.4V384h16v-15.4C120.5,372.2,139.8,391.5,143.4,416z M128.6,325.5c-11.6-4.6-22.5-10.5-32.6-17.7v-20.2
	c1.9,1.6,3.9,3.2,5.9,4.7l9.9-12.6c-0.1-0.1-0.2-0.1-0.2-0.2c-5.6-4.3-10.8-9.1-15.6-14.3v-37.1H80v15.4c-10.5-18.1-16-38.6-16-59.5
	c-0.2-66.3,53.3-120.2,119.6-120.4S303.8,117,304,183.2c0,13.9-2.3,27.7-7,40.8h-25v16h18c-29,55-95.3,78.7-152.6,54.6l-6.2,14.7
	c67.9,28.6,146.2-2.2,176.6-69.4h17.4C294.5,317.9,206.5,356.1,128.6,325.5z M290.9,313.5c8.2-6.8,15.8-14.4,22.6-22.6l35,35
	l-22.6,22.6L290.9,313.5z M473,450.3C473,450.3,473,450.3,473,450.3L450.3,473c-9.4,9.3-24.6,9.3-33.9,0l-5.7-5.7l56.6-56.6l5.7,5.7
	C482.3,425.8,482.3,441,473,450.3z"/>
<rect x="184" y="384" width="56" height="16"/>
<rect x="184" y="416" width="40" height="16"/>
<rect x="184" y="448" width="24" height="16"/>
<path class="st0" d="M488,88h-8h-32h-8h-8v8v32v8h8h8h32h8h8v-8V96v-8H488z M480,120h-32v-16h32V120z"/>
<rect x="272" y="224" class="st0" width="216" height="16"/>
</svg>
