<?xml version="1.0" encoding="utf-8"?>
<!-- Generator: Adobe Illustrator 24.2.1, SVG Export Plug-In . SVG Version: 6.00 Build 0)  -->
<svg version="1.1" id="Capa_1" xmlns="http://www.w3.org/2000/svg" xmlns:xlink="http://www.w3.org/1999/xlink" x="0px" y="0px"
	 viewBox="0 0 512 512" style="enable-background:new 0 0 512 512;" xml:space="preserve">
<style type="text/css">
	.st0{fill:#4C8641;}
</style>
<path d="M328.3,497h-64.5v-76.7c0-12.4-10.1-22.6-22.6-22.6l-143.1,0.9c-0.1,0-0.2,0-0.3,0c-14,0-27.2-5.4-37.1-15.3
	c-10-10-15.5-23.2-15.5-37.4v-5.4c0-14.1,5.5-27.3,15.4-37.2l10-10h107.1v-15H70.6l-5.4-5.4c-12.9-12.9-20-30-20-48.3
	c0-16.4,5.9-32.3,16.6-44.7l5.1-5.9h141.9v-15H66.9L58,148.8c-8.3-9.6-12.8-21.8-12.8-34.5V15h64.5v76.7c0,12.4,10.1,22.6,22.5,22.6
	L205,115l0.1-15l-73-0.7c-4.1,0-7.5-3.4-7.5-7.5V0H30.1v114.3c0,16.3,5.9,32,16.5,44.3l6.9,7.9l-3.1,3.5
	c-13.1,15.1-20.3,34.5-20.3,54.5c0,22.3,8.7,43.2,24.4,58.9l2.3,2.3l-6.9,6.9c-12.8,12.8-19.8,29.8-19.8,47.9v5.4
	c0,18.2,7.1,35.2,20,48c12.8,12.7,29.7,19.7,47.7,19.7c0.1,0,0.3,0,0.4,0l143-0.9c4.1,0,7.5,3.4,7.5,7.5V512h94.6v-65.6l-15,0V497z"
	/>
<path d="M276,100l-0.1,15c28.9,0.2,52.4,23.8,52.4,52.7v2.5h15v-2.5C343.3,130.6,313.1,100.2,276,100z"/>
<rect y="73.1" width="15" height="15"/>
<path d="M33.6,166.8l-3-4.2C20.4,148.5,15,131.8,15,114.3v-11.8H0v11.8c0,18.9,5.4,37.1,15.6,53C5.4,184.7,0,204.4,0,224.6h15
	c0-19,5.5-37.5,15.8-53.5L33.6,166.8z"/>
<rect x="59.8" y="58.1" width="14.9" height="15"/>
<rect x="59.8" y="27.8" width="14.9" height="15"/>
<rect x="248.1" y="100" width="15" height="14.9"/>
<rect x="217.8" y="100" width="15" height="14.9"/>
<rect x="151.2" y="374.9" class="st0" width="15" height="14.9"/>
<rect x="120.9" y="374.9" class="st0" width="15" height="14.9"/>
<path class="st0" d="M108.1,374.9l-2.2,0c-9.6,0-18.6-3.7-25.4-10.5c-6.9-6.8-10.7-15.9-10.7-25.6v-5.9H54.9v5.9
	c0,13.7,5.3,26.5,15,36.2c9.6,9.6,22.4,14.8,35.9,14.8l2.3,0L108.1,374.9z"/>
<g>
	<g>
		<path d="M227.1,367.8c2.5,11.8,6.8,23.1,13,33.4c25.6,42.7,77.7,64.4,127.6,49.6c11.7-3.5,22.7-8.8,32.6-15.8l74.1,74.1
			c3.1,3.1,8.2,3.1,11.3,0l24-24c3.1-3.1,3.1-8.2,0-11.3L433.8,398c4-7.1,7.2-14.6,9.5-22.5H456v-16h-9.3c3-19.4,0.7-39.2-6.7-57.3
			v-59.9h-16v32.1c-4.8-6.1-10.1-11.6-16-16.6v-66.3h-16v55.2c-5.1-3-10.5-5.5-16-7.6v-79.5h-16v74.7c-5.3-1.1-10.6-1.9-16-2.2v-49
			h-16v49c-5.4,0.4-10.7,1.1-16,2.2v-13.7h-16V239c-5.5,2.1-10.9,4.7-16,7.6v-56.4h-16v67.5c-5.9,5-11.2,10.5-16,16.6v-58.9h-16
			v86.7c-4.8,11.8-7.5,24.3-7.9,36.9c-0.3,8.9,0.6,17.8,2.5,26.5L227.1,367.8z M336,439.5c-53-0.1-95.9-43-96-96c0-53,43-96,96-96
			s96,43,96,96S389,439.5,336,439.5z M480,492.2l-67.3-67.3c4.4-4.1,8.4-8.6,12-13.3l67.9,67.9L480,492.2z"/>
	</g>
</g>
<g>
	<g>
		<path class="st0" d="M336,264c-44.2,0-80,35.8-80,80s35.8,80,80,80s80-35.8,80-80C416,299.8,380.2,264,336,264z M336,408
			c-22.8,0-43.9-12.2-55.3-32h110.7C379.9,395.8,358.8,408,336,408z M274.1,360c-6.4-24.4,2.2-50.2,21.9-65.9V344h16v-59.3
			c5.1-2.1,10.5-3.5,16-4.2V344h16v-63.4c5.5,0.7,10.9,2.1,16,4.2V344h16v-49.9c19.7,15.7,28.3,41.5,21.9,65.9H274.1z"/>
	</g>
</g>
</svg>
