<?xml version="1.0" encoding="utf-8"?>
<!-- Generator: Adobe Illustrator 24.2.1, SVG Export Plug-In . SVG Version: 6.00 Build 0)  -->
<svg version="1.1" id="Capa_1" xmlns="http://www.w3.org/2000/svg" xmlns:xlink="http://www.w3.org/1999/xlink" x="0px" y="0px"
	 viewBox="0 0 512 512" style="enable-background:new 0 0 512 512;" xml:space="preserve">
<style type="text/css">
	.st0{fill:#4C8641;}
</style>
<rect x="35.1" y="228.6" class="st0" width="134.8" height="16"/>
<rect x="91.2" y="260.2" class="st0" width="52.6" height="16"/>
<rect x="35.1" y="194.5" class="st0" width="116.2" height="16"/>
<rect x="0" y="160" class="st0" width="118.8" height="16"/>
<path d="M449.1,497H22.5l8.7-52.5L16.5,442L4.4,512h26.7h409.2h26.6l-27.2-158.8c-2.4-14.3-12.6-25.8-26.5-30l-61.1-18.4
	c-1.3-14.9-7.4-29-17.6-40.2c-8.2-8.9-18.4-15.4-29.7-19c1.9-2.1,3.7-4.3,5.4-6.4c14.5-18.5,22.3-38.8,24.3-52.7h4.7
	c12.3,0,22.2-10,22.2-22.2v-11.4c0-8.2-4.6-15.6-11.5-19.4V106h-15v30.8c-2.9,0.5-6.4,1.4-10,2.9c-0.4,0.1-0.7,0.3-1.1,0.5
	c-0.8,0.4-1.6,0.8-2.4,1.2V80.9c0-16.7-13.6-30.3-30.3-30.3h-20.7c-7.1,0-14.1,2.5-19.6,7l-2,1.7c-3.7,3-8.4,4.7-13.3,4.7
	c-4.8,0-9.5-1.7-13.3-4.7l-2-1.7c-5.5-4.5-12.5-7-19.6-7h-20.7c-16.7,0-30.3,13.6-30.3,30.3v60.4c-0.8-0.4-1.6-0.8-2.4-1.2
	c-0.3-0.2-0.7-0.3-1.1-0.5c-3.6-1.5-7-2.4-10-2.9V59c0-24.3,19.8-44,44-44H291c24.3,0,44,19.8,44,44v11.8h15V59
	c0-32.5-26.5-59-59-59H180.4c-32.5,0-59,26.5-59,59v74.4c-6.9,3.8-11.5,11.3-11.5,19.4v11.4c0,12.3,10,22.2,22.2,22.2h4.7
	c2,13.9,9.8,34.2,24.3,52.7c1.6,2.1,3.4,4.2,5.4,6.4c-26,8.3-44.9,31.6-47.3,59.2l-61.1,18.4c-13.9,4.2-24,15.7-26.5,30L22.4,407
	l14.8,2.5l9.2-53.8c1.5-8.6,7.6-15.6,16-18.1l56.5-17v14.8c-13,2.4-24,11.3-28.5,23.6c-1.2,3.3-2,6.7-2.2,10.2l-5.5,70.1
	c-0.4,5.3,1.4,10.5,5,14.4c3.6,3.9,8.7,6.1,14,6.1h9.3v-15h-9.3c-1.1,0-2.2-0.5-3-1.3c-0.8-0.8-1.2-1.9-1.1-3.1l5.5-70.1
	c0.2-2.1,0.6-4.2,1.3-6.2c3.2-8.6,11.7-14.4,21.2-14.4l1.2,0c0.1,0,0.1,0,0.2,0c9.3,0,17.5,5.3,20.9,13.4c1,2.3,1.6,4.7,1.8,7.2
	l5.5,70.1c0.1,1.1-0.3,2.2-1.1,3.1c-0.8,0.8-1.9,1.3-3,1.3h-9.3v15h9.3c5.3,0,10.4-2.2,14-6.1c3.6-3.9,5.4-9.1,5-14.4l-5.5-70.1
	c-0.3-4.1-1.3-8.1-2.9-11.9c-4.9-11.7-15.5-19.8-27.9-22V316l25.8-7.8c2.3,4.9,7,15.6,16.2,38.6c9.3,23.2,20.8,53,31.9,81.9
	c0.1,0.2,0.2,0.5,0.3,0.7c7.4,19.3,14.5,38.2,20.7,54.5c1.1,2.9,3.9,4.9,7,4.9s5.9-1.9,7-4.9c6.1-16.3,13.3-35.2,20.7-54.5
	c0.1-0.2,0.2-0.5,0.3-0.7c11.1-28.9,22.6-58.6,31.8-81.9c9.2-23,13.9-33.7,16.2-38.7l25.8,7.8v44.3c-17.9,3.5-31.4,19.2-31.4,38.1
	c0,21.4,17.4,38.8,38.8,38.8c21.4,0,38.8-17.4,38.8-38.8c0-18.8-13.4-34.5-31.2-38v-39.8l56.5,17c8.4,2.5,14.5,9.5,16,18.1
	L449.1,497z M335.1,152.1c4-1,7.2-1,7.2-1c1.3,0,2.5-0.3,3.7-0.9c0.3,0.8,0.5,1.7,0.5,2.7v11.4c0,4-3.2,7.2-7.2,7.2h-4.2V152.1z
	 M136.3,171.5L136.3,171.5h-4.2c-4,0-7.2-3.2-7.2-7.2v-11.4c0-0.9,0.2-1.8,0.5-2.7c1.1,0.6,2.4,0.9,3.7,0.9c0.1,0,3.3,0,7.2,1V171.5
	z M151.3,179.9v-19.7c2.3,0.7,4.8,0.6,7.1-0.4c3.9-1.6,6.5-5.5,6.5-9.7V80.9c0-8.4,6.9-15.3,15.3-15.3h20.7c3.7,0,7.3,1.3,10.1,3.6
	l2,1.7c6.4,5.2,14.5,8.1,22.7,8.1c8.3,0,16.3-2.9,22.7-8.1l2-1.7c2.9-2.3,6.5-3.6,10.1-3.6h20.7c8.4,0,15.3,6.9,15.3,15.3v69.2
	c0,4.3,2.5,8.1,6.5,9.7c1.3,0.5,2.7,0.8,4.1,0.8c1,0,2-0.1,3-0.4v19.7c0,10.9-7.6,32.2-21.6,50c-4.6,5.9-10.6,12.3-18,17.8
	c-0.2,0.2-0.5,0.3-0.7,0.5c-11.4,8.4-26,14.9-44.2,14.9s-32.8-6.5-44.2-14.9c-0.2-0.2-0.4-0.3-0.7-0.5c-7.4-5.5-13.3-11.9-18-17.8
	C158.8,212.1,151.3,190.9,151.3,179.9z M284.8,301.1l-49.1,36.7l-49.1-36.7c4.9-6.2,7.6-14.1,7.6-21.2v-12.1
	c11.6,6.2,25.3,10.4,41.5,10.4s30-4.2,41.5-10.4v12.1C277.2,286.9,280,294.9,284.8,301.1z M174.1,292.7c-4-1.5-8.4-1.8-12.6-0.6
	c-0.2,0-0.4,0.1-0.5,0.1L135,300c4.4-21.5,21.9-38.7,44.2-42v21.8C179.2,284.5,177.1,289.4,174.1,292.7z M194.4,352.9
	c0,0,0-0.1,0-0.1c-0.4-1-0.8-1.9-1.1-2.8c-0.1-0.2-0.1-0.3-0.2-0.5c-0.4-0.9-0.7-1.8-1.1-2.7c0-0.1,0-0.1-0.1-0.2
	c-1.1-2.8-2.2-5.5-3.2-8c-0.1-0.2-0.1-0.4-0.2-0.6c-0.3-0.7-0.6-1.5-0.9-2.2c-0.1-0.3-0.2-0.5-0.3-0.8c-0.3-0.7-0.6-1.4-0.8-2.1
	c-0.1-0.2-0.2-0.4-0.2-0.6c-0.5-1.2-1-2.4-1.5-3.6c-0.1-0.3-0.3-0.6-0.4-0.9c-0.2-0.5-0.4-0.9-0.5-1.3c-0.2-0.5-0.4-1-0.6-1.4
	c-0.1-0.2-0.1-0.4-0.2-0.5c-0.1-0.1-0.1-0.3-0.2-0.4c-0.9-2.1-1.7-4.1-2.5-6c0,0,0,0,0,0c-0.4-1-0.8-2-1.2-2.9
	c-0.2-0.5-0.4-1-0.6-1.4l42.2,31.6l-17.7,7.5c0,0-0.1,0-0.1,0l-7.4,3.1C195.2,355,194.8,353.9,194.4,352.9z M212.3,398.8
	c-1.5-3.8-3-7.7-4.5-11.6c-2.3-6-4.6-11.8-6.7-17.3l2.8-1.2l11.4,13.3L212.3,398.8z M235.8,459.7c-0.2-0.4-0.5-0.9-0.8-1.3
	c-3.4-9-7.7-20.3-12.4-32.8l7-38.3h12.1l7,38.3C243.8,438.8,239.3,450.6,235.8,459.7z M244.6,372.4h-17.8l-8.4-9.8l17.3-7.3
	l17.3,7.3L244.6,372.4z M263.6,387.2c-1.5,3.9-3,7.7-4.5,11.6l-3.1-16.7l11.4-13.3l2.8,1.2C268.1,375.4,265.9,381.2,263.6,387.2z
	 M292.3,315.2c-0.4,0.9-0.8,1.8-1.2,2.7c-0.1,0.1-0.1,0.2-0.2,0.4c-0.4,0.9-0.8,1.9-1.2,2.9c0,0.1-0.1,0.1-0.1,0.2
	c-0.4,0.9-0.7,1.7-1.1,2.6c-0.1,0.2-0.1,0.3-0.2,0.5c-0.1,0.2-0.2,0.4-0.3,0.6c-0.2,0.4-0.3,0.8-0.5,1.2c-0.2,0.5-0.4,1-0.6,1.5
	c-0.1,0.2-0.1,0.3-0.2,0.5c-0.5,1.3-1.1,2.6-1.6,4c-0.1,0.2-0.2,0.4-0.3,0.6c-0.3,0.7-0.5,1.4-0.8,2c-0.1,0.3-0.2,0.5-0.3,0.8
	c-0.3,0.7-0.6,1.4-0.9,2.2c-0.1,0.2-0.2,0.4-0.2,0.6c-1,2.5-2.1,5.2-3.2,7.9c0,0.1-0.1,0.2-0.1,0.3c-0.4,0.9-0.7,1.8-1.1,2.7
	c-0.1,0.2-0.1,0.3-0.2,0.5c-0.4,0.9-0.8,1.9-1.1,2.9c0,0,0,0,0,0.1c-0.4,1-0.8,2.1-1.2,3.2l-7.4-3.1c0,0-0.1,0-0.1,0l-17.7-7.5
	l42.2-31.6C292.7,314.2,292.5,314.7,292.3,315.2z M310.5,292.2C310.5,292.2,310.5,292.2,310.5,292.2
	C310.5,292.2,310.5,292.2,310.5,292.2c-4.4-1.3-9-1.1-13.2,0.5c-3-3.3-5.1-8.2-5.1-12.9V258c22.5,3.3,39.9,20.3,44.2,42L310.5,292.2
	z M368.7,398.4c0,13.1-10.7,23.8-23.8,23.8s-23.8-10.7-23.8-23.8c0-13.1,10.7-23.8,23.8-23.8S368.7,385.3,368.7,398.4z"/>
<rect x="335" y="81.5" width="14.7" height="14.7"/>
<polygon class="st0" points="388.3,48 512,48 512,32 388.3,32 388.3,16 512,16 512,0 388.3,0 380.3,0 372.3,0 372.3,8 372.3,40 
	372.3,48 380.3,48 "/>
<rect x="457.1" y="128" class="st0" width="54.9" height="16"/>
<path class="st0" d="M504,64h-8h-61.6h-8h-8v8v32v8h8h8H496h8h8v-8V72v-8H504z M496,96h-61.6V80H496V96z"/>
<path class="st0" d="M434.3,154.6V99.1h-16v55.4c-39.5,4.4-68,40-63.6,79.6c4.4,39.5,40,68,79.6,63.6c39.5-4.4,68-40,63.6-79.6
	C494.2,184.8,467.8,158.4,434.3,154.6z M434.3,281.5v-47.4h47.4C478.1,258.6,458.8,277.9,434.3,281.5z M426.3,218.1
	c-4.4,0-8,3.6-8,8v55.4c-30.6-4.4-51.8-32.8-47.4-63.4c3.5-24.6,22.8-43.9,47.4-47.4v15.4h16v-15.4c24.5,3.6,43.8,22.9,47.4,47.4
	H426.3z"/>
</svg>
