<?xml version="1.0" encoding="utf-8"?>
<!-- Generator: Adobe Illustrator 23.0.2, SVG Export Plug-In . SVG Version: 6.00 Build 0)  -->
<svg version="1.1" id="Capa_1" xmlns="http://www.w3.org/2000/svg" xmlns:xlink="http://www.w3.org/1999/xlink" x="0px" y="0px"
	 viewBox="0 0 512 512" style="enable-background:new 0 0 512 512;" xml:space="preserve">
<style type="text/css">
	.st0{fill:#00893D;}
</style>
<path class="st0" d="M483.6,52.1c-1.8-3.1-5.1-5-8.6-5h-48.2l-24.2-42c-1.8-3.1-5.1-5-8.7-5h-54c-3.6,0-6.9,1.9-8.7,5l-22.2,38.5
	l-17.5-9.2c0.2-1.4,0.3-2.8,0.3-4.3c0-16.5-13.5-30-30-30c-16.5,0-30,13.5-30,30s13.5,30,30,30c7.9,0,15-3,20.4-8l23.4,12.3
	l25.6,43.7c1.8,3.1,5.1,5,8.6,5h48.1l21.2,37.6l-20.1,30.3c-2.3-0.6-4.7-0.9-7.2-0.9c-16.5,0-30,13.5-30,30s13.5,30,30,30
	c4.6,0,8.9-1,12.9-2.9l20,20c-1.9,4-2.9,8.4-2.9,12.9c0,16.5,13.5,30,30,30c16.5,0,30-13.5,30-30s-13.5-30-30-30
	c-4.6,0-8.9,1-12.9,2.9l-20-20c1.9-4,2.9-8.4,2.9-12.9c0-6.8-2.3-13.1-6.1-18.1l20.5-30.9H475c3.6,0,6.9-1.9,8.7-5l27-47.4
	c1.8-3.1,1.8-6.9,0-10L483.6,52.1z M262,40c-5.5,0-10-4.5-10-10s4.5-10,10-10c5.5,0,10,4.5,10,10S267.5,40,262,40z M324.5,56.8
	L345.7,20h42.5L409.4,57L388.3,93h-42.6L324.5,56.8z M371.9,210c0-5.5,4.5-10,10-10s10,4.5,10,10c0,5.5-4.5,10-10,10
	C376.4,220,371.9,215.5,371.9,210z M451.9,270c0,5.5-4.5,10-10,10c-5.5,0-10-4.5-10-10c0-5.5,4.5-10,10-10
	C447.4,260,451.9,264.5,451.9,270z M469.2,141h-42.4l-21.3-37.9L426.7,67h42.5l21.2,36.7L469.2,141z"/>
<path class="st0" d="M193,206c-3.3,0-6.4,1.6-8.2,4.3c-6.5,9.5-21.8,32.9-21.8,45.7c0,16.5,13.5,30,30,30s30-13.5,30-30
	c0-12.8-15.2-36.2-21.8-45.7C199.3,207.6,196.3,206,193,206z M193,266c-5.5,0-10-4.5-10-10c0.1-3.1,4.2-11.8,10-21.5
	c5.8,9.7,9.9,18.4,10,21.5C203,261.5,198.5,266,193,266z"/>
<circle cx="193" cy="502" r="10"/>
<path d="M266,233.5V146h10c5.5,0,10-4.5,10-10V96c0-5.5-4.5-10-10-10H110c-5.5,0-10,4.5-10,10v40c0,5.5,4.5,10,10,10h10v87.5
	L4.7,453.1C1.6,458.8,0,465.4,0,472c0,22.1,17.9,40,40,40h108c5.5,0,10-4.5,10-10s-4.5-10-10-10H40c-11,0-20-9-20-20
	c0-3.4,0.8-6.5,2.4-9.5c0,0,61.2-116.5,61.2-116.5h218.9c0,0,61.1,116.5,61.2,116.5c1.6,2.9,2.4,6.1,2.4,9.5c0,11-9,20-20,20H238
	c-5.5,0-10,4.5-10,10s4.5,10,10,10h108c22.1,0,40-17.9,40-40c0-6.6-1.6-13.1-4.7-18.9L266,233.5z M120,106h146v20H120V106z M94,326
	l44.8-85.3c0.8-1.4,1.1-3,1.1-4.6v-90h106v90c0,1.6,0.4,3.2,1.1,4.6l44.8,85.3H94z"/>
</svg>
