<?xml version="1.0" encoding="utf-8"?>
<!-- Generator: Adobe Illustrator 23.0.2, SVG Export Plug-In . SVG Version: 6.00 Build 0)  -->
<svg version="1.1" id="Layer_1" xmlns="http://www.w3.org/2000/svg" xmlns:xlink="http://www.w3.org/1999/xlink" x="0px" y="0px"
	 viewBox="0 0 512 512" style="enable-background:new 0 0 512 512;" xml:space="preserve">
<style type="text/css">
	.st0{fill:#00893D;}
</style>
<circle cx="379" cy="446" r="10"/>
<path d="M509.1,58.9c-1.9-1.9-4.4-2.9-7.1-2.9H10c-2.6,0-5.2,1.1-7.1,2.9C1.1,60.8,0,63.4,0,66v380c0,2.6,1.1,5.2,2.9,7.1
	c1.9,1.9,4.4,2.9,7.1,2.9h324c5.5,0,10-4.5,10-10s-4.5-10-10-10h-68V76h226v360h-68c-5.5,0-10,4.5-10,10s4.5,10,10,10h78
	c2.6,0,5.2-1.1,7.1-2.9c1.9-1.9,2.9-4.4,2.9-7.1V66C512,63.4,510.9,60.8,509.1,58.9z M246,436H20V76h226V436z"/>
<path class="st0" d="M60,175h50c5.5,0,10-4.5,10-10s-4.5-10-10-10H60c-5.5,0-10,4.5-10,10S54.5,175,60,175z"/>
<path class="st0" d="M145,165c0,5.5,4.5,10,10,10h51c5.5,0,10-4.5,10-10s-4.5-10-10-10h-51C149.5,155,145,159.5,145,165z"/>
<path class="st0" d="M103,125h60c5.5,0,10-4.5,10-10s-4.5-10-10-10h-60c-5.5,0-10,4.5-10,10S97.5,125,103,125z"/>
<path class="st0" d="M432,286c16.5,0,30-13.5,30-30s-13.5-30-30-30s-30,13.5-30,30S415.5,286,432,286z M432,246c5.5,0,10,4.5,10,10
	s-4.5,10-10,10s-10-4.5-10-10S426.5,246,432,246z"/>
<path class="st0" d="M432,206c16.5,0,30-13.5,30-30s-13.5-30-30-30s-30,13.5-30,30S415.5,206,432,206z M432,166c5.5,0,10,4.5,10,10
	s-4.5,10-10,10s-10-4.5-10-10S426.5,166,432,166z"/>
<path class="st0" d="M462,336c0-16.5-13.5-30-30-30s-30,13.5-30,30s13.5,30,30,30S462,352.5,462,336z M422,336c0-5.5,4.5-10,10-10
	s10,4.5,10,10s-4.5,10-10,10S422,341.5,422,336z"/>
<path class="st0" d="M306,186h56c5.5,0,10-4.5,10-10s-4.5-10-10-10h-56c-5.5,0-10,4.5-10,10S300.5,186,306,186z"/>
<path class="st0" d="M306,266h56c5.5,0,10-4.5,10-10s-4.5-10-10-10h-56c-5.5,0-10,4.5-10,10S300.5,266,306,266z"/>
<path class="st0" d="M306,346h56c5.5,0,10-4.5,10-10s-4.5-10-10-10h-56c-5.5,0-10,4.5-10,10S300.5,346,306,346z"/>
</svg>
