<?xml version="1.0" encoding="utf-8"?>
<!-- Generator: Adobe Illustrator 23.0.2, SVG Export Plug-In . SVG Version: 6.00 Build 0)  -->
<svg version="1.1" id="Слой_1" xmlns="http://www.w3.org/2000/svg" xmlns:xlink="http://www.w3.org/1999/xlink" x="0px" y="0px"
	 viewBox="0 0 512 512" style="enable-background:new 0 0 512 512;" xml:space="preserve">
<style type="text/css">
	.st0{fill:#00893D;}
</style>
<path class="st0" d="M156,406h200c5.5,0,10-4.5,10-10V236c0-5.5-4.5-10-10-10H156c-5.5,0-10,4.5-10,10v160
	C146,401.5,150.5,406,156,406z M166,246h180v140H166V246z"/>
<path d="M502,76h-30c0-22.1-17.9-40-40-40H80c-22.1,0-40,17.9-40,40H10C4.5,76,0,80.5,0,86v60c0,5.5,4.5,10,10,10h20.4
	c1.1,23.8,4.8,88,14.7,151.5C62.8,420.9,90.6,476,130,476h252c39.8,0,67.7-55.1,85.3-168.5c9.8-63.5,13.3-127.7,14.4-151.5H502
	c5.5,0,10-4.5,10-10V86C512,80.5,507.5,76,502,76z M80,56h352c11,0,20,9,20,20H60C60,65,69,56,80,56z M447.5,304.6
	C432.6,400.8,408.7,456,382,456H130c-26.3,0-50-55.2-65.1-151.4C55.2,242.7,51.6,180.1,50.4,156h411.2
	C460.6,180.1,457.1,242.7,447.5,304.6z M492,136H20V96h472V136z"/>
<path class="st0" d="M316,266H196c-5.5,0-10,4.5-10,10s4.5,10,10,10h120c5.5,0,10-4.5,10-10S321.5,266,316,266z"/>
<path class="st0" d="M316,306h-80c-5.5,0-10,4.5-10,10c0,5.5,4.5,10,10,10h80c5.5,0,10-4.5,10-10C326,310.5,321.5,306,316,306z"/>
<path class="st0" d="M196,326c5.5,0,10-4.5,10-10c0-5.5-4.5-10-10-10s-10,4.5-10,10C186,321.5,190.5,326,196,326z"/>
<path class="st0" d="M216,346h-20c-5.5,0-10,4.5-10,10c0,5.5,4.5,10,10,10h20c5.5,0,10-4.5,10-10C226,350.5,221.5,346,216,346z"/>
<path class="st0" d="M316,346h-20c-5.5,0-10,4.5-10,10c0,5.5,4.5,10,10,10h20c5.5,0,10-4.5,10-10C326,350.5,321.5,346,316,346z"/>
<path class="st0" d="M256,346c-5.5,0-10,4.5-10,10c0,5.5,4.5,10,10,10s10-4.5,10-10C266,350.5,261.5,346,256,346z"/>
</svg>
