<?xml version="1.0" encoding="utf-8"?>
<!-- Generator: Adobe Illustrator 23.0.2, SVG Export Plug-In . SVG Version: 6.00 Build 0)  -->
<svg version="1.1" id="Capa_1" xmlns="http://www.w3.org/2000/svg" xmlns:xlink="http://www.w3.org/1999/xlink" x="0px" y="0px"
	 viewBox="0 0 512 512" style="enable-background:new 0 0 512 512;" xml:space="preserve">
<style type="text/css">
	.st0{fill:#00893D;}
</style>
<g>
	<g>
		<path d="M395.5,91.7L207.2,0.7c-2.1-1-4.5-1-6.5,0L12.3,91.7C9.7,92.9,8,95.6,8,98.4v220.9c0,2.9,1.6,5.5,4.2,6.8L200.6,417
			c1,0.5,2.1,0.7,3.3,0.7s2.2-0.2,3.3-0.7l38.1-18.4c3.7-1.8,5.3-6.3,3.5-10c-1.8-3.7-6.3-5.3-10-3.5l-27.4,13.2V194.1l37.1-17.9
			c3.7-1.8,5.3-6.3,3.5-10c-1.8-3.7-6.3-5.3-10-3.5l-38.1,18.4L32.8,98.4l57.1-27.6l181.2,87.5v72.1c0,2.6,1.3,5,3.5,6.4
			c1.2,0.8,2.6,1.1,4,1.1c1.1,0,2.2-0.2,3.3-0.7l45.5-22c2.6-1.3,4.2-3.9,4.2-6.8v-72.4l53.2-25.7V248c0,4.1,3.4,7.5,7.5,7.5
			s7.5-3.4,7.5-7.5V98.4C399.8,95.6,398.1,92.9,395.5,91.7z M196.4,194.1v204.2L23,314.6V110.4L196.4,194.1z M278.2,145.2
			L107.4,62.7L139.8,47l170.9,82.5L278.2,145.2z M316.6,203.8l-30.5,14.7V158l30.5-14.7V203.8z M327.8,121.2
			c-0.2-0.1-0.3-0.2-0.5-0.3L156.8,38.6l47.1-22.8L375,98.4L327.8,121.2z"/>
	</g>
</g>
<g>
	<g>
		<path d="M78.9,289.9l-27.6-13.3c-3.7-1.8-8.2-0.2-10,3.5s-0.2,8.2,3.5,10l27.6,13.3c1.1,0.5,2.2,0.7,3.3,0.7
			c2.8,0,5.5-1.6,6.8-4.2C84.2,296.2,82.6,291.7,78.9,289.9z"/>
	</g>
</g>
<g>
	<g>
		<path d="M104.3,268.4l-53-25.6c-3.7-1.8-8.2-0.2-10,3.5c-1.8,3.7-0.2,8.2,3.5,10l53,25.6c1.1,0.5,2.2,0.7,3.3,0.7
			c2.8,0,5.5-1.6,6.8-4.2C109.6,274.7,108,270.2,104.3,268.4z"/>
	</g>
</g>
<g>
	<g>
		<path class="st0" d="M384.3,272.5c-66,0-119.7,53.7-119.7,119.7S318.2,512,384.3,512S504,458.3,504,392.3S450.3,272.5,384.3,272.5
			z M384.3,497c-57.7,0-104.7-47-104.7-104.7s47-104.7,104.7-104.7S489,334.5,489,392.3S442,497,384.3,497z"/>
	</g>
</g>
<g>
	<g>
		<path class="st0" d="M464.4,384.8h-57.9c-2.3-7-7.8-12.5-14.8-14.8v-57.9c0-4.1-3.4-7.5-7.5-7.5s-7.5,3.4-7.5,7.5V370
			c-9.3,3.1-16,11.9-16,22.3c0,13,10.6,23.5,23.5,23.5c10.4,0,19.2-6.7,22.3-16h57.9c4.1,0,7.5-3.4,7.5-7.5S468.6,384.8,464.4,384.8
			z M384.3,400.8c-4.7,0-8.5-3.8-8.5-8.5c0-4.7,3.8-8.5,8.5-8.5s8.5,3.8,8.5,8.5C392.8,397,389,400.8,384.3,400.8z"/>
	</g>
</g>
</svg>
