<svg id="Слой_1" data-name="Слой 1" xmlns="http://www.w3.org/2000/svg" viewBox="0 0 512 512"><defs><style>.cls-1{fill:#00893d;}</style></defs><path class="cls-1" d="M370,366.27h15V413H370Z" transform="translate(0 0)"/><path class="cls-1" d="M370,341.27h15v15H370Z" transform="translate(0 0)"/><path class="cls-1" d="M377.48,302.2H302.34v75.15a75.15,75.15,0,1,0,75.14-75.15Zm0,135.3a60.21,60.21,0,0,1-60.14-60.15V317.2h60.14a60.15,60.15,0,0,1,0,120.3Z" transform="translate(0 0)"/><path d="M313.93,240.77l11.82,11.81L336.36,242l-7.13-7.13a75.1,75.1,0,0,0,13.38-9.08l9.87,9.86L363.09,225l-9.85-9.84a76.18,76.18,0,0,0,9.1-13.38l7.18,7.18,10.61-10.61-11.8-11.79a88,88,0,0,0,2.82-17.51l-15-1c-.13,2-.32,3.89-.56,5.76l-17.49-17.5c43.8-5.71,110.78,25.19,168.57-32.59l5.3-5.31L470.57,77.05c-6.66,6.66-13.19,13.9-24.8,18.88l-29.7-29.7c4.92-11.51,12.05-18,18.88-24.8L393.53,0l-5.31,5.3C366.57,27,355,52.78,352.79,84.23l15,1c1.77-25.45,10.05-45.95,25.93-63.9L414,41.64A75.3,75.3,0,0,0,404.88,55l-7.64-7.65L386.63,58l12.28,12.29a89,89,0,0,0-2.77,17.36l15,1c.12-1.93.3-3.78.54-5.59L429,100.36c-44,5.65-110.68-25.15-168.4,32.58-21.66,21.65-33.25,47.47-35.43,78.93l15,1c1.95-28.07,11.83-50.12,31.08-69.36,67.1-67.1,143.34,1.71,199.16-45.51l20.26,20.27C422.05,178.89,347.2,108,291.41,163.75c-14.3,14.3-21.58,30.68-22.92,51.54l15,1c.12-1.87.3-3.67.53-5.43l17.2,17.2c-43.78,5.53-110.6-25.08-168.24,32.56-21.65,21.66-33.24,47.47-35.43,78.92l15,1c1.94-28.06,11.82-50.1,31.07-69.35C199.45,215.29,264.28,253.8,313.93,240.77ZM318,223.62,288.38,194a57.14,57.14,0,0,1,8.51-14L332,215.11A58,58,0,0,1,318,223.62Zm33.16-33a57.37,57.37,0,0,1-8.57,13.9l-35.11-35.11a58.49,58.49,0,0,1,13.9-8.57Z" transform="translate(0 0)"/><path d="M379.07,251.41c21.65-21.66,33.24-47.47,35.42-78.93l-15-1c-1.95,28.07-11.82,50.1-31.07,69.35-55.94,55.95-120.87,17.32-170.54,30.47L185.67,259l-10.61,10.6,7.59,7.59a75.54,75.54,0,0,0-13.36,9.11L159,276,148.35,286.6l10.33,10.33a75,75,0,0,0-9.07,13.39l-7.61-7.6-10.61,10.61,12.25,12.24a88.21,88.21,0,0,0-2.78,17.36l15,1c.13-1.93.31-3.78.55-5.59l17.34,17.34C129.89,361.27,63,330.51,5.3,388.22L0,393.53,41.43,435c6.68-6.68,13.2-13.9,24.8-18.88l29.7,29.7c-4.92,11.51-12.05,18-18.88,24.8L118.47,512l5.31-5.3C145.43,485,157,459.22,159.21,427.76l-15-1c-1.77,25.45-10.05,45.95-25.93,63.89L98,470.36a74.77,74.77,0,0,0,9.08-13.4l7.64,7.64L125.37,454l-12.28-12.29a89,89,0,0,0,2.77-17.36l-15-1c-.12,1.93-.3,3.78-.54,5.59L83,411.63c43.87-5.62,110.69,25.14,168.41-32.58,21.65-21.66,33.24-47.47,35.43-78.93l-15-1c-1.95,28.08-11.82,50.12-31.07,69.37-67,67-143.29-1.76-199.17,45.5L21.38,393.7C90.11,333.27,164.86,404,220.6,348.23c14.29-14.29,21.57-30.66,22.91-51.52l-15-1c-.13,1.93-.31,3.78-.55,5.59L210.64,284C254.5,278.36,321.34,309.13,379.07,251.41Zm-218.28,70.1a57.1,57.1,0,0,1,8.54-13.93l35.09,35.09a58.5,58.5,0,0,1-13.93,8.54Zm62.78-3.38A57.72,57.72,0,0,1,215,332.06L179.94,297a58.5,58.5,0,0,1,13.93-8.54Z" transform="translate(0 0)"/><path class="cls-1" d="M160.64,393.17c-11,0-22.19-1.05-33-2.06-7.59-.72-15.45-1.45-23-1.79l.68-15c8,.36,16,1.12,23.77,1.85,10.44,1,21.23,2,31.58,2a110.14,110.14,0,0,0,25.5-2.67l3.46,14.6A125,125,0,0,1,160.64,393.17ZM200,387l-5.09-14.11a76.76,76.76,0,0,0,12.37-5.76l7.51,13A92.81,92.81,0,0,1,200,387Zm23.84-12.83-8.92-12.06A94,94,0,0,0,225.4,353L236,363.64A107.7,107.7,0,0,1,223.84,374.18Z" transform="translate(0 0)"/><path class="cls-1" d="M262.14,208.71l-14.89-1.82c2.87-23.48,11.94-42.15,28.54-58.75a107.15,107.15,0,0,1,13.28-11.31L297.8,149a90.46,90.46,0,0,0-11.4,9.71C272.29,172.85,264.58,188.73,262.14,208.71Zm43.38-64.57L298.24,131a93.89,93.89,0,0,1,14.87-6.64l4.9,14.18A79,79,0,0,0,305.52,144.14Zm21.3-8.07-3.3-14.63a111.46,111.46,0,0,1,15.87-2.38L340.61,134A98.43,98.43,0,0,0,326.82,136.07Z" transform="translate(0 0)"/><path class="cls-1" d="M412.94,412.81l-10.6-10.61a35.19,35.19,0,0,0,0-49.7l10.6-10.61A50.21,50.21,0,0,1,412.94,412.81Z" transform="translate(0 0)"/></svg>