<?xml version="1.0" encoding="utf-8"?>
<!-- Generator: Adobe Illustrator 24.1.2, SVG Export Plug-In . SVG Version: 6.00 Build 0)  -->
<svg version="1.1" id="Слой_1" xmlns="http://www.w3.org/2000/svg" xmlns:xlink="http://www.w3.org/1999/xlink" x="0px" y="0px"
	 viewBox="0 0 511 511" style="enable-background:new 0 0 511 511;" xml:space="preserve">
<style type="text/css">
	.st0{fill:#00893D;}
</style>
<path d="M322,140.5l-11,10.2c27.3,29.3,41,60.4,42.6,97.3h-22.3v15h22.3c-5.7,126.3-143.2,133.7-149.3,233h-45
	c0.4-9.8,1.8-18.9,3.8-27.5h18.5v-15h-14.1c32.7-92.1,141.4-103.6,141.4-198.1c0-37.8-17.3-60.6-32.4-76.2l-10.8,10.4
	c5.1,5.3,9.5,10.6,13.2,15.9H234c35.4-51.3,134.7-84.3,134.7-198.1V0h-74.8c0,10.6,0.6,25.5-6.7,42.6h-61.3
	c-7.4-17.2-6.8-31.9-6.8-42.6h-74.8v7.5c0,12.3,1.1,23.9,3.5,35.1h-12v15h15.9c7.4,23.2,20.3,44.5,39.4,64.9l11-10.2
	C185.8,95,174.4,77,167.5,57.6h14.2v-15h-18.6c-2.1-8.9-3.3-18.1-3.7-27.7h45c2.1,33.4,18.1,54.2,32.2,68.8l10.8-10.4
	c-5.1-5.3-9.4-10.5-13-15.7h44.6c-36.2,52.1-133.5,82.6-134.6,197.9c0,44.2,14.9,80.8,46.8,115l11-10.2
	c-28.5-30.5-42.8-63.6-42.8-104.8c0-110.7,102.8-137,137.1-197.9h24.6v-15h-17.8c3-8.4,4.9-17.5,5.5-27.7h45
	c-4.7,104.8-103.4,130.5-137.1,190.6h-25.5v15h18.7c-2.9,8.4-4.8,17.4-5.4,27.5h-22.7v15h22.7c0.7,10.3,2.6,19.4,5.5,27.5h-18.7v15
	h25.4c5.9,10.7,13.2,19.2,20,26.3l10.8-10.4c-5.1-5.3-9.5-10.6-13.2-15.9h44.8c-30.2,43.7-103.3,72-127.3,148.2h-16v15h12.1
	c-2.2,10.7-3.5,22.3-3.5,35v7.5h74.9c0-10.6-0.6-25.4,6.6-42.4h61.5c7.4,17.1,6.7,31.7,6.7,42.4h74.9v-7.5
	c0-44.2-14.9-80.8-46.8-115l-11,10.2c27.3,29.3,41,60.4,42.6,97.3h-45c-0.7-10.3-2.6-19.4-5.5-27.5h18.7v-15h-25.5
	c-5.9-10.7-13.2-19.2-20-26.3l-10.8,10.4c5.1,5.3,9.5,10.6,13.2,15.9H234C268.8,403.2,364.2,371,368.6,263h8.7v-15h-8.7
	C367,207.1,352.1,172.8,322,140.5z M225.7,220.6h61.5c3.7,8.6,5.8,17.6,6.5,27.5h-74.3C220,237.8,222.2,228.8,225.7,220.6z
	 M225.8,290.5c-3.7-8.6-5.8-17.6-6.5-27.5h74.3c-0.7,10.3-2.9,19.2-6.4,27.5H225.8z"/>
<g>
	<g>
		<path class="st0" d="M465.9,209.4c-22.9,0-41.9,16.8-45.5,38.6h-8.1v15h8.1c3.6,21.9,22.6,38.6,45.5,38.6
			c25.4,0,46.1-20.7,46.1-46.1C512,230.1,491.3,209.4,465.9,209.4z M465.9,286.7c-17.2,0-31.2-14-31.2-31.2s14-31.2,31.2-31.2
			c17.2,0,31.2,14,31.2,31.2S483,286.7,465.9,286.7z"/>
		<path class="st0" d="M387.3,248h15v15h-15V248z"/>
		<path class="st0" d="M47.1,4C21.7,4,1,24.7,1,50.1c0,25.4,20.7,46.1,46.1,46.1c22.9,0,41.9-16.8,45.5-38.6h8.1v-15h-8.1
			C89.1,20.7,70,4,47.1,4z M47.1,81.3c-17.2,0-31.2-14-31.2-31.2S29.9,19,47.1,19s31.2,14,31.2,31.2S64.3,81.3,47.1,81.3z"/>
		<path class="st0" d="M110.7,42.6h15v15h-15V42.6z"/>
		<path class="st0" d="M47.1,414.9C21.7,414.9,1,435.6,1,461.1c0,25.4,20.7,46.1,46.1,46.1c22.9,0,41.9-16.8,45.5-38.6h8.1v-15h-8.1
			C89.1,431.7,70,414.9,47.1,414.9z M47.1,492.2c-17.2,0-31.2-14-31.2-31.2s14-31.2,31.2-31.2s31.2,14,31.2,31.2
			S64.3,492.2,47.1,492.2z"/>
		<path class="st0" d="M110.7,453.6h15v15h-15V453.6z"/>
		<path class="st0" d="M465.9,278.4c-5.9,0-11.7-2.2-16.2-6.7l10.6-10.6c3.1,3.1,8.2,3.1,11.3,0c3.1-3.1,3.1-8.2,0-11.3l10.6-10.6
			c8.9,8.9,8.9,23.5,0,32.4C477.6,276.2,471.7,278.4,465.9,278.4z"/>
		<path class="st0" d="M47.1,73c-6.1,0-11.9-2.4-16.2-6.7l10.6-10.6c1.5,1.5,3.5,2.3,5.6,2.3s4.1-0.8,5.6-2.3
			c1.5-1.5,2.3-3.5,2.3-5.6c0-2.1-0.8-4.1-2.3-5.6l10.6-10.6c4.3,4.3,6.7,10.1,6.7,16.2c0,6.1-2.4,11.9-6.7,16.2
			C59,70.7,53.3,73,47.1,73z"/>
		<path class="st0" d="M47.1,484c-6.1,0-11.9-2.4-16.2-6.7l10.6-10.6c1.5,1.5,3.5,2.3,5.6,2.3s4.1-0.8,5.6-2.3
			c1.5-1.5,2.3-3.5,2.3-5.6c0-2.1-0.8-4.1-2.3-5.6l10.6-10.6c4.3,4.3,6.7,10.1,6.7,16.2c0,6.1-2.4,11.9-6.7,16.2
			C59,481.6,53.3,484,47.1,484z"/>
		<path class="st0" d="M208.7,447.3l-13-7.5c11.2-19.4,26.9-34.5,39.4-45.4c1.3-1.1,3.5-3,7.5-6.4l9.7,11.4
			c-2.6,2.2-5.8,4.9-7.3,6.2C233.4,415.8,218.8,429.7,208.7,447.3z M259.8,393l-9.6-11.5c3.7-3.1,7.6-6.4,11.4-9.7l9.7,11.4
			C267.5,386.5,263.5,389.9,259.8,393z M279,376.8l-9.7-11.4c5.3-4.5,9-7.8,11.1-9.7l10.2,11C288.3,368.8,284.5,372.1,279,376.8z"/>
		<path class="st0" d="M216.6,187.2l-12-9c7.8-10.4,17.2-20.3,30.4-31.9c2.3-2,7.6-6.5,14.3-12.1c7.9-6.7,17.8-15,24.6-20.9
			l9.8,11.3c-6.9,6-16.8,14.3-24.7,21c-6.4,5.4-11.9,10-14,11.9C232.5,168.5,223.8,177.7,216.6,187.2z M291.4,117.8l-10.2-10.9
			c3.8-3.6,7.2-6.9,10.3-10.2l10.8,10.3C299,110.5,295.5,114,291.4,117.8z M309.3,99.3L298,89.6c3.2-3.7,6.1-7.5,8.8-11.2L319,87
			C316.1,91.1,312.8,95.3,309.3,99.3z"/>
	</g>
</g>
</svg>
